<?xml version="1.0" encoding="UTF-8"?>
<!DOCTYPE svg PUBLIC "-//W3C//DTD SVG 1.1//EN" "http://www.w3.org/Graphics/SVG/1.1/DTD/svg11.dtd">
<!-- Creator: CorelDRAW 2019 (64-Bit) -->
<svg xmlns="http://www.w3.org/2000/svg" xml:space="preserve" width="10.2057mm" height="9.528mm" version="1.1" style="shape-rendering:geometricPrecision; text-rendering:geometricPrecision; image-rendering:optimizeQuality; fill-rule:evenodd; clip-rule:evenodd"
viewBox="0 0 532.51 497.15"
 xmlns:xlink="http://www.w3.org/1999/xlink"
 xmlns:xodm="http://www.corel.com/coreldraw/odm/2003">
 <defs>
  <style type="text/css">
   <![CDATA[
    .fil4 {fill:#6671B4}
    .fil3 {fill:#5259A4}
    .fil0 {fill:#009B4C}
    .fil2 {fill:#2F318B}
    .fil1 {fill:#FEFEFE;fill-rule:nonzero}
    .fil5 {fill:#EBAA1C;fill-rule:nonzero}
   ]]>
  </style>
 </defs>
 <g id="Layer_x0020_1">
  <metadata id="CorelCorpID_0Corel-Layer"/>
  <g id="_2446279536272">
   <g>
    <circle class="fil0" cx="240.95" cy="181.02" r="156.08"/>
    <path class="fil1" d="M235.7 155.21l0 -25.61c-4.46,0.75 -7.89,2.13 -10.25,4.11 -2.36,2 -3.53,4.46 -3.53,7.37 0,2.72 1.13,5.21 3.37,7.53 2.23,2.3 5.69,4.49 10.41,6.6zm10.67 39.15l0 28.74c4.24,-1.26 7.37,-3.01 9.38,-5.21 2.03,-2.23 3.04,-5.01 3.04,-8.34 0,-2.91 -1.04,-5.66 -3.14,-8.21 -2.07,-2.56 -5.18,-4.88 -9.28,-6.99zm-49.5 14.58c7.53,4.75 14.29,8.24 20.3,10.51 6.02,2.23 11.8,3.46 17.36,3.65l0 -34.11 -12.22 -7.21c-9.18,-5.31 -15.91,-11.09 -20.18,-17.4 -4.27,-6.27 -6.4,-13.48 -6.4,-21.63 0,-10.02 3.56,-18.52 10.67,-25.48 7.11,-6.95 16.49,-10.93 28.13,-11.93l0 -18.01 12.61 0 0.09 18.2c3.46,0.32 7.34,0.97 11.64,1.97 4.3,1.03 9.77,2.55 16.39,4.65l0 30.82c-6.43,-3.85 -11.96,-6.79 -16.59,-8.83 -4.59,-2.03 -8.44,-3.24 -11.54,-3.62l0 30.33 4.92 2.46c12.19,6.31 20.92,12.84 26.19,19.53 5.27,6.69 7.89,14.48 7.89,23.38 0,11.55 -3.56,21.34 -10.7,29.36 -7.11,8.02 -16.56,12.84 -28.29,14.48l0 24.64 -12.61 0 0 -23.89 -1.71 0c-4.04,0 -8.57,-0.49 -13.55,-1.46 -5.01,-0.97 -11.54,-2.69 -19.66,-5.14l-2.75 -35.27z"/>
   </g>
   <rect class="fil2" x="135.09" y="229.87" width="65.75" height="233.42"/>
   <rect class="fil3" x="242.17" y="178.91" width="65.75" height="284.38"/>
   <rect class="fil4" x="352.31" y="119.73" width="65.75" height="343.55"/>
   <g>
    <path class="fil5" d="M504.71 497.15l-504.71 0 0 -18.41 504.71 0 9.2 9.2 -9.2 9.2zm9.2 -9.2l0 9.2 -9.2 0 9.2 -9.2zm0 -445.05l0 445.05 -18.41 0 0 -445.05 18.41 0zm-9.2 3.49l-27.83 39.4 0 -42.9 27.79 -42.9 27.83 42.9 0 42.9 -27.79 -39.4z"/>
   </g>
   <rect class="fil2" x="28.7" y="288.23" width="65.75" height="175.06"/>
  </g>
 </g>
</svg>
