<?xml version="1.0" encoding="UTF-8"?>
<!DOCTYPE svg PUBLIC "-//W3C//DTD SVG 1.1//EN" "http://www.w3.org/Graphics/SVG/1.1/DTD/svg11.dtd">
<!-- Creator: CorelDRAW 2019 (64-Bit) -->
<svg xmlns="http://www.w3.org/2000/svg" xml:space="preserve" width="136.155mm" height="91.44mm" version="1.1" style="shape-rendering:geometricPrecision; text-rendering:geometricPrecision; image-rendering:optimizeQuality; fill-rule:evenodd; clip-rule:evenodd"
viewBox="0 0 15068.92 10120.07"
 xmlns:xlink="http://www.w3.org/1999/xlink"
 xmlns:xodm="http://www.corel.com/coreldraw/odm/2003">
 <defs>
  <style type="text/css">
   <![CDATA[
    .str0 {stroke:#106996;stroke-width:58.57;stroke-miterlimit:22.9256}
    .str1 {stroke:#095882;stroke-width:22.13;stroke-miterlimit:22.9256}
    .fil0 {fill:none}
    .fil4 {fill:#095882}
    .fil1 {fill:#FEFEFE;fill-rule:nonzero}
    .fil2 {fill:url(#id4)}
    .fil3 {fill:url(#id5);fill-rule:nonzero}
   ]]>
  </style>
    <clipPath id="id0">
     <path d="M15068.92 0l0 10120.07 -15068.92 0 0 -10120.07 15068.92 0zm-7534.46 755.52c1714.1,0 3103.69,1389.56 3103.69,3103.69 0,998.03 -471.2,1885.89 -1203.12,2453.66l0 652.89 854.72 0c21.34,0 38.79,17.45 38.79,38.79l0 1544.02c0,21.34 -17.45,38.79 -38.79,38.79l-5530.06 0c-21.34,0 -38.79,-17.45 -38.79,-38.79l0 -1544.02c0,-21.34 17.45,-38.79 38.79,-38.79l854.72 0 0 -667.99c-720.83,-568.34 -1183.63,-1449.39 -1183.63,-2438.57 0,-27.47 0.39,-54.84 1.1,-82.13 19.76,-797.64 341.41,-1520.35 854.98,-2058.21 565.31,-593.48 1363.28,-963.34 2247.61,-963.34z"/>
    </clipPath>
    <clipPath id="id1">
     <rect x="5044.22" y="1253.29" width="5116.21" height="5106.88"/>
    </clipPath>
     <clipPath id="id2">
      <rect x="5201.46" y="1405.87" width="4801.72" height="4801.72"/>
     </clipPath>
     <clipPath id="id3">
      <rect x="5227.55" y="1431.96" width="4749.55" height="4749.55"/>
     </clipPath>
  <linearGradient id="id4" gradientUnits="userSpaceOnUse" x1="7598.49" y1="7244.14" x2="7450.92" y2="8466.15">
   <stop offset="0" style="stop-opacity:1; stop-color:#FEFEFE"/>
   <stop offset="0.164706" style="stop-opacity:1; stop-color:#FEFEFE"/>
   <stop offset="0.329412" style="stop-opacity:1; stop-color:#877F38"/>
   <stop offset="1" style="stop-opacity:1; stop-color:#FEFEFE"/>
  </linearGradient>
  <linearGradient id="id5" gradientUnits="objectBoundingBox" x1="45.1241%" y1="0%" x2="42.5791%" y2="105.261%">
   <stop offset="0" style="stop-opacity:1; stop-color:#D8AE37"/>
   <stop offset="0.164706" style="stop-opacity:1; stop-color:#CFB13A"/>
   <stop offset="0.329412" style="stop-opacity:1; stop-color:#877F38"/>
   <stop offset="1" style="stop-opacity:1; stop-color:#C6B53E"/>
  </linearGradient>
 </defs>
 <g id="Layer_x0020_1">
  <metadata id="CorelCorpID_0Corel-Layer"/>
  <g id="_2446276628208">
   <g style="clip-path:url(#id0)">
    <image x="-0.01" y="-3060.09" width="15068.93" height="15508.13" xlink:href="lite paper_Images\lite paper_ImgID1.png"/>
   </g>
   <g style="clip-path:url(#id1)">
    <image x="5044.22" y="1253.29" width="5116.21" height="5106.88" xlink:href="lite paper_Images\lite paper_ImgID2.png"/>
   </g>
   <g>
    <g style="clip-path:url(#id2)">
     <image x="5201.46" y="1405.89" width="4801.71" height="4801.71" xlink:href="lite paper_Images\lite paper_ImgID3.png"/>
    </g>
    <g style="clip-path:url(#id3)">
     <image x="5227.55" y="1431.97" width="4749.54" height="4749.54" xlink:href="lite paper_Images\lite paper_ImgID4.png"/>
    </g>
   </g>
   <path class="fil0 str0" d="M7524.73 761.28c1708.66,0 3093.83,1385.17 3093.83,3093.85 0,987.72 -462.87,1867.34 -1183.53,2433.79l0 676.84 854.72 0c21.34,0 38.79,17.45 38.79,38.79l0 1544.02c0,21.34 -17.45,38.79 -38.79,38.79l-5530.06 0c-21.34,0 -38.79,-17.45 -38.79,-38.79l0 -1544.02c0,-21.34 17.45,-38.79 38.79,-38.79l854.72 0 0 -676.86c-720.66,-566.44 -1183.52,-1446.05 -1183.52,-2433.76 0,-1708.68 1385.17,-3093.85 3093.85,-3093.85z"/>
   <path class="fil1" d="M6351.25 6694.99l0 59.22c0,25.22 -4.94,47.35 -14.73,66.61 -9.78,19.18 -23.64,33.98 -41.62,44.49 -17.98,10.5 -38.76,15.75 -62.4,15.75 -23.95,0 -44.97,-4.93 -63.03,-14.8 -18.15,-9.87 -32.15,-23.79 -42.1,-41.87 -9.95,-18.06 -14.89,-38.91 -14.89,-62.71l0 -100.05c0,-25.15 4.86,-47.35 14.64,-66.45 9.79,-19.1 23.64,-33.91 41.62,-44.41 17.98,-10.5 38.76,-15.76 62.4,-15.76 19.42,0 37.33,4.22 53.72,12.5 16.4,8.28 30.08,20.05 41.15,35.34 11.07,15.21 18.46,32.87 22.37,52.92l0 0 -51.5 0 0 0c-2.79,-11.38 -7.56,-21.08 -14.24,-29.28 -6.68,-8.12 -14.56,-14.33 -23.56,-18.63 -8.99,-4.29 -18.31,-6.44 -27.93,-6.44 -14.01,0 -26.26,3.34 -36.84,10.03 -10.59,6.68 -18.78,16.07 -24.51,28.09 -5.73,12.1 -8.6,26.11 -8.6,42.1l0 100.05c0,14.64 2.94,27.37 8.83,38.36 5.89,10.98 14.25,19.41 25.08,25.54 10.82,6.05 23.32,9.08 37.4,9.08 14.01,0 26.26,-3.19 36.85,-9.47 10.58,-6.29 18.78,-15.44 24.51,-27.38 5.73,-11.93 8.59,-26.17 8.59,-42.65l0 -14.72 -68.76 0 0 -45.45 117.56 0z"/>
   <path id="1" class="fil1" d="M6471.03 6815.1c0,5.89 1.35,10.43 3.9,13.61 2.55,3.18 6.13,4.77 10.82,4.77l22.37 0 0 45.29 -27.93 0c-18.07,0 -32,-5.66 -41.87,-16.79 -9.86,-11.22 -14.8,-26.98 -14.8,-47.36l0 -276.09 47.51 0 0 276.56z"/>
   <path id="2" class="fil1" d="M6654.56 6881.07c-21.02,0 -38.92,-4.14 -53.89,-12.33 -14.89,-8.28 -26.34,-20.3 -34.14,-36.06 -7.88,-15.76 -11.78,-34.77 -11.78,-56.99l0 -39.39c0,-21.97 3.9,-40.75 11.78,-56.36 7.8,-15.59 19.26,-27.54 34.14,-35.65 14.96,-8.2 32.87,-12.26 53.89,-12.26 20.93,0 38.91,4.06 53.88,12.26 14.89,8.11 26.26,20.05 34.14,35.65 7.8,15.61 11.78,34.39 11.78,56.36l0 40.03c0,22.12 -3.97,40.98 -11.78,56.59 -7.88,15.59 -19.26,27.54 -34.14,35.81 -14.96,8.19 -32.95,12.33 -53.88,12.33zm0 -45.2c16.63,0 29.44,-5.26 38.59,-15.68 9.08,-10.43 13.61,-24.99 13.61,-43.85l0 -40.03c0,-18.87 -4.54,-33.35 -13.61,-43.62 -9.15,-10.27 -21.96,-15.44 -38.59,-15.44 -16.63,0 -29.53,5.17 -38.6,15.44 -9.08,10.27 -13.61,24.75 -13.61,43.62l0 40.03c0,18.86 4.54,33.42 13.61,43.85 9.08,10.43 21.97,15.68 38.6,15.68z"/>
   <path id="3" class="fil1" d="M6930.41 6881.07c-15.04,0 -28.18,-3.57 -39.4,-10.82 -11.22,-7.24 -19.41,-17.51 -24.75,-30.71l3.26 -50.54c0,10.43 1.9,19.26 5.64,26.58 3.74,7.24 9.08,12.89 16.16,16.79 7.08,3.83 15.68,5.81 25.79,5.81 15.68,0 27.86,-4.77 36.53,-14.32 8.59,-9.55 12.89,-23.08 12.89,-40.51l0 -52.45c0,-17.67 -4.31,-31.44 -12.89,-41.23 -8.68,-9.79 -20.85,-14.73 -36.53,-14.73 -10.1,0 -18.7,1.91 -25.79,5.58 -7.08,3.74 -12.42,9.23 -16.16,16.47 -3.74,7.25 -5.64,15.91 -5.64,26.03l-4.86 -46.64c7.33,-14.17 16.88,-25.07 28.65,-32.79 11.85,-7.73 24.99,-11.54 39.4,-11.54 17.11,0 31.75,3.82 44,11.54 12.19,7.73 21.49,18.94 27.86,33.67 6.36,14.8 9.55,32.63 9.55,53.4l0 52.69c0,20.53 -3.26,38.12 -9.78,52.76 -6.53,14.56 -16.08,25.71 -28.73,33.43 -12.58,7.71 -27.62,11.53 -45.21,11.53zm-108.39 -342.54l47.51 0 0 339.04 -47.51 0 0 -339.04z"/>
   <path id="4" class="fil1" d="M7218.44 6724.12c0,-15.84 -4.29,-28.17 -12.74,-36.92 -8.51,-8.75 -20.45,-13.21 -36.05,-13.21 -9.63,0 -19.02,1.52 -28.33,4.46 -9.24,2.94 -17.43,7.08 -24.59,12.33l-34.71 -23.79c9.15,-10.98 21.25,-19.58 36.21,-25.71 15.04,-6.12 31.68,-9.23 50.06,-9.23 20.07,0 37.18,3.51 51.5,10.59 14.33,7.08 25.23,17.34 32.64,30.8 7.47,13.45 11.21,29.68 11.21,48.62l0 155.52 -45.2 0 0 -153.45zm-59.3 156.95c-29.84,0 -52.13,-6.2 -66.85,-18.54 -14.81,-12.34 -22.2,-31.12 -22.2,-56.34 0,-23.88 6.76,-41.87 20.29,-53.81 13.54,-12.02 33.99,-17.98 61.37,-17.98l68.76 0 3.26 38.28 -71.79 0c-12.5,0 -21.73,2.71 -27.86,8.28 -6.21,5.49 -9.23,13.92 -9.23,25.23 0,12.33 4.06,21.4 12.26,27.29 8.11,5.89 20.53,8.92 37.16,8.92 18.14,0 31.75,-1.99 40.67,-5.9 8.91,-3.82 13.45,-9.95 13.45,-18.14l4.86 34.07c-4.23,6.52 -9.4,11.85 -15.53,16.07 -6.12,4.14 -13.2,7.33 -21.33,9.4 -8.03,2.15 -17.19,3.18 -27.3,3.18z"/>
   <path id="5" class="fil1" d="M7383.42 6815.1c0,5.89 1.35,10.43 3.9,13.61 2.55,3.18 6.13,4.77 10.82,4.77l22.37 0 0 45.29 -27.93 0c-18.07,0 -32,-5.66 -41.87,-16.79 -9.86,-11.22 -14.8,-26.98 -14.8,-47.36l0 -276.09 47.51 0 0 276.56z"/>
   <polygon id="6" class="fil1" points="7850.68,6538.53 7895.17,6538.53 7895.17,6877.57 7848.77,6877.57 7848.77,6623.69 7851.15,6638.57 7767.67,6830.46 7734.56,6830.46 7651.08,6643.26 7653.38,6623.69 7653.38,6877.57 7606.98,6877.57 7606.98,6538.53 7651.55,6538.53 7751.11,6762.4 "/>
   <path id="7" class="fil1" d="M8067.32 6881.07c-21.02,0 -38.92,-4.14 -53.89,-12.33 -14.89,-8.28 -26.34,-20.3 -34.14,-36.06 -7.88,-15.76 -11.78,-34.77 -11.78,-56.99l0 -39.39c0,-21.97 3.9,-40.75 11.78,-56.36 7.8,-15.59 19.26,-27.54 34.14,-35.65 14.96,-8.2 32.87,-12.26 53.89,-12.26 20.93,0 38.91,4.06 53.88,12.26 14.89,8.11 26.26,20.05 34.14,35.65 7.8,15.61 11.78,34.39 11.78,56.36l0 40.03c0,22.12 -3.97,40.98 -11.78,56.59 -7.88,15.59 -19.26,27.54 -34.14,35.81 -14.96,8.19 -32.95,12.33 -53.88,12.33zm0 -45.2c16.63,0 29.44,-5.26 38.59,-15.68 9.08,-10.43 13.61,-24.99 13.61,-43.85l0 -40.03c0,-18.87 -4.54,-33.35 -13.61,-43.62 -9.15,-10.27 -21.96,-15.44 -38.59,-15.44 -16.63,0 -29.53,5.17 -38.6,15.44 -9.08,10.27 -13.61,24.75 -13.61,43.62l0 40.03c0,18.86 4.54,33.42 13.61,43.85 9.08,10.43 21.97,15.68 38.6,15.68z"/>
   <path id="8" class="fil1" d="M8234.77 6635.55l47.51 0 0 242.02 -47.51 0 0 -242.02zm146.92 95.35c0,-17.11 -4.46,-30.32 -13.38,-39.64 -8.83,-9.31 -21.25,-14 -37.24,-14 -15.61,0 -27.54,4.14 -36.06,12.42 -8.43,8.19 -12.73,19.81 -12.73,34.7l-4.86 -46.64c7.48,-14.56 17.19,-25.86 29.28,-33.82 12.02,-7.88 25.31,-11.86 39.95,-11.86 26.27,0 46.56,8.6 60.97,25.79 14.4,17.19 21.57,41.47 21.57,72.82l0 146.92 -47.51 0 0 -146.68z"/>
   <path id="9" class="fil1" d="M8600.64 6881.07c-22.37,0 -41.55,-4.22 -57.38,-12.57 -15.84,-8.43 -27.93,-20.77 -36.21,-37.01 -8.36,-16.24 -12.5,-35.81 -12.5,-58.81l0 -27.3c0,-23.95 3.97,-44.4 12.02,-61.36 7.96,-16.96 19.58,-29.85 34.85,-38.68 15.21,-8.83 33.59,-13.29 55.01,-13.29 20.21,0 37.49,5.09 51.81,15.13 14.24,10.1 25.15,24.75 32.72,43.85 7.56,19.1 11.3,42.1 11.3,68.84l0 15.84 -163.16 0 0 -38.28 117.95 0 0 0c-1.43,-19.73 -6.53,-35.09 -15.28,-46 -8.75,-10.99 -20.53,-16.48 -35.33,-16.48 -18,0 -32,5.89 -41.87,17.75 -9.87,11.78 -14.81,28.49 -14.81,50.14l0 30.72c0,20.05 5.33,35.49 15.84,46.16 10.59,10.75 25.63,16.16 45.06,16.16 9.63,0 19.18,-1.99 28.64,-5.89 9.47,-3.82 18,-9.32 25.48,-16.32l0 0 31.2 31.29 0 0c-11.94,11.45 -25.39,20.38 -40.35,26.66 -14.89,6.29 -29.93,9.46 -44.97,9.46z"/>
   <path id="10" class="fil1" d="M8936.9 6635.55l-103.07 298.69c-3.74,11.07 -8.59,19.74 -14.72,26.19 -6.05,6.53 -13.54,11.14 -22.37,13.92 -8.83,2.79 -19.73,4.23 -32.63,4.23l-9.55 0 0 -45.76 9.55 0c8.83,0 15.91,-1.76 21.08,-5.33 5.26,-3.59 9.79,-9.71 13.61,-18.38l89.54 -273.54 48.55 0zm-214.25 0l48.48 0 74.33 210.35 -26.34 51.5 -96.46 -261.84z"/>
   <g>
    <path class="fil2" d="M5370.36 8015.46l395.53 0 0 149.59 -557.48 0 0 -859.74 161.95 0 0 710.15zm455.12 -542.58l0 -167.57 154.08 0 0 167.57 -154.08 0zm0 692.17l0 -638.38 154.08 0 0 638.38 -154.08 0zm266.49 -506.77l-73.05 0 0 -131.61 73.05 0 0 -132.21 154.08 -92.53 0 224.75 98.89 0 0 131.61 -98.89 0 0 313.98c0,9.15 -0.07,35.18 3.1,43.83 1.24,2.94 3.23,4.81 5.51,6.24 4.63,2.74 14.43,3.23 19.6,3.23 12.78,0 26.42,-1.77 39.05,-3.63l27.13 -4 21.66 140.21 -25.61 5.37c-26.11,5.47 -53.3,9.4 -80.02,9.4 -32.56,0 -68.5,-4.18 -97.15,-20.75 -23.58,-13.64 -42.18,-32.56 -53.08,-57.66 -13.93,-32.11 -14.27,-93.08 -14.27,-127.85l0 -308.37zm421.98 240.46c5.4,36.72 17.83,73.1 43.73,100.12 27.81,29.01 61.51,42.44 101.62,42.44 27.66,0 53.65,-6.47 75.99,-23.16 25.19,-18.81 41.06,-49.79 51.4,-78.76l7.5 -20.99 155.56 20.52 -8.16 30.4c-16.49,61.46 -48.09,114.73 -99.19,153.27 -53.21,40.15 -117.38,54.83 -183.11,54.83 -85.08,0 -162.85,-24.8 -222.26,-87.23 -61.88,-65.02 -82.32,-151.88 -82.32,-239.46 0,-89.58 20.21,-179.34 82.88,-246.55 57.87,-62.07 131.85,-89.87 216.26,-89.87 82.4,0 154.32,27.58 210.68,88.22 61.49,66.17 81.36,154.32 81.36,242.4 0,9.02 -0.29,18.07 -0.56,27.08l-0.84 26.74 -430.55 0zm760.24 -23.58l0 289.89 -245.1 0 0 -850.75 232.29 0c50.59,0 107.23,2.22 156.48,14.49 39.26,9.76 75.56,26.62 108.07,50.67 32.72,24.19 58.86,54.3 77.16,90.69 18.19,36.17 27.28,74.75 27.28,115.22 0,85.22 -29.86,158.13 -96,212.69 -70.57,58.21 -160.99,77.1 -250.53,77.1 -3.21,0 -6.43,0.01 -9.66,0.01zm675.78 281.82c-12.45,7.22 -25.42,13.52 -38.87,18.52 -23.95,8.89 -49.05,13.15 -74.58,13.15 -73.44,0 -134.19,-30.21 -181.69,-85.92 -50.47,-59.18 -71.77,-130.52 -71.77,-207.8 0,-81.9 24.09,-156.35 80.53,-216.47 55.04,-58.64 124.54,-86.61 204.77,-86.61 20.38,0 40.71,3.01 60.45,7.94 20.63,5.16 40.89,12.54 60.51,20.87l169.21 -6.25 0 337.65c0,32.01 0.39,64.22 2.2,96.2 1.22,21.46 2.84,43.36 6.25,64.61l3.91 24.41 -208.6 57.36 -12.31 -37.65zm479.54 -541.54c16.58,-6.03 33.57,-10.79 50.94,-13.97 18.69,-3.43 37.64,-5.14 56.65,-5.14 76.82,0 143.67,26.48 196.37,82.7 54.53,58.19 76.94,130.87 76.94,209.89 0,82.18 -24.34,156.95 -82.98,215.6 -58.54,58.52 -133,82.99 -215.04,82.99 -12.4,0 -24.75,-0.71 -37.06,-2.05 -4.79,-0.52 -9.58,-1.07 -14.37,-1.66l0 186.12 -226 38.42 0 -792.92 194.54 0zm948.67 301.67l-26.95 214.29 -13.71 6.47c-33.6,15.87 -68.68,28.96 -104.9,37.5 -34.51,8.12 -69.59,12.16 -105.03,12.16 -81.49,0 -157.76,-21.77 -218.15,-78.47 -58.52,-54.94 -84.37,-125.56 -84.37,-205.33 0,-85.86 29.86,-160.27 90.96,-220.75 60.88,-60.26 135.31,-90.01 220.92,-90.01 69.67,0 133.65,19.77 185.24,67.46 50.72,46.89 73.84,107.14 73.84,175.88 0,16.24 -1.2,32.91 -2.31,49.11l-0.1 1.47 -1.87 10.53 -13.57 19.7zm-330.72 27.89c5.2,12.67 13.41,23.74 25.03,33.32 22.21,18.34 49.37,24.78 77.76,24.78 27.4,0 55.36,-6.93 81.06,-16.03 34.6,-12.25 67.8,-29.84 98.8,-49.39l0.9 -0.56 -283.55 7.88zm608.91 -291.75c9.3,-8.51 19.39,-16.15 30.36,-22.69 34.13,-20.33 73.7,-27.48 113,-27.48l41.27 0 0 239.48 -64.87 0c-21.79,0 -73.99,1.24 -92.78,13.75 -13.96,9.27 -15.39,51.34 -15.39,65.6l0 243.15 -228.24 0 0 -549.61 215.26 0 1.39 37.81zm-3135.86 109.39l261.72 0c-4.48,-23.62 -12.52,-47.62 -26.98,-65.12 -26.36,-31.91 -59.47,-47.1 -100.82,-47.1 -36.95,0 -68.46,11.57 -94.87,37.57 -21.26,20.94 -33.25,46.64 -39.05,74.65zm753.68 -247.06l0 157.17 6.86 0c30.26,0 68.2,-3.9 93.41,-22.38 19.49,-14.29 26.56,-33.71 26.56,-57.52 0,-22.78 -5.45,-43.41 -25.15,-56.74 -25.71,-17.4 -71.14,-20.42 -101.69,-20.53zm657.2 270.07c-3,-1.22 -6.09,-2.28 -9.25,-3.1 -6.63,-1.86 -13.37,-2.91 -20.26,-2.91 -25.63,0 -44.96,11.23 -61.03,30.89 -20.03,24.48 -27.29,54.31 -27.29,85.52 0,28.8 6.05,57.03 23.76,80.31 12.79,16.81 28.16,27.87 49.76,27.87 7.82,0 15.42,-2.48 22.35,-6 7.81,-3.96 15.2,-9.4 21.97,-15.3l0 -197.28zm530.69 216.3c2.71,0.56 5.45,1.08 8.17,1.55 6.41,1.11 12.98,1.85 19.48,1.85 26.07,0 45.59,-10.9 61.91,-31 20.14,-24.81 27.16,-55.26 27.16,-86.72 0,-28.92 -6.22,-57.04 -24.41,-80.11 -13.99,-17.75 -30.77,-27.88 -53.6,-27.88 -7.9,0 -15.83,0.9 -23.57,2.46 -5.05,1.02 -10.1,2.25 -15.13,3.6l0 216.26zm592.97 -186.55l146.12 -4.47c-2.77,-9.24 -7.86,-17.41 -15.78,-24.65 -14.23,-12.99 -31.41,-17.87 -50.5,-17.87 -22.22,0 -42.64,5.56 -59.55,20.33 -8.72,7.63 -15.33,16.7 -20.29,26.66z"/>
   </g>
   <polygon class="fil3" points="5236.02,8137.45 5236.02,7332.91 5342.76,7332.91 5342.76,8043.06 5738.29,8043.06 5738.29,8137.45 "/>
   <path id="1" class="fil3" d="M5853.08 7445.28l0 -112.37 98.88 0 0 112.37 -98.88 0zm0 692.17l0 -583.18 98.88 0 0 583.18 -98.88 0z"/>
   <path id="2" class="fil3" d="M6317.34 8049.24l13.48 87.27c-27.71,5.81 -52.63,8.81 -74.35,8.81 -35.77,0 -63.48,-5.62 -83.34,-17.04 -19.66,-11.42 -33.52,-26.22 -41.57,-44.76 -8.06,-18.55 -11.99,-57.5 -11.99,-116.86l0 -335.97 -73.05 0 0 -76.41 73.05 0 0 -144.2 98.88 -59.38 0 203.57 98.89 0 0 76.41 -98.89 0 0 341.59c0,28.29 1.69,46.45 5.25,54.5 3.38,8.06 8.99,14.42 16.86,19.29 7.87,4.68 19.1,7.12 33.71,7.12 10.86,0 25.28,-1.31 43.07,-3.93z"/>
   <path id="3" class="fil3" d="M6812.68 7948.67l102.25 13.49c-15.93,59.37 -45.7,105.62 -89.15,138.39 -43.44,32.78 -98.88,49.26 -166.49,49.26 -85.02,0 -152.44,-26.22 -202.26,-78.66 -49.81,-52.25 -74.72,-125.85 -74.72,-220.43 0,-97.75 25.09,-173.79 75.47,-227.72 50.38,-54.12 115.73,-81.09 196.07,-81.09 77.73,0 141.21,26.41 190.46,79.41 49.26,53 73.97,127.53 73.97,223.61 0,5.8 -0.19,14.61 -0.55,26.22l-434.3 0c3.74,63.86 21.73,112.92 54.31,146.82 32.41,33.9 73.05,50.94 121.54,50.94 36.15,0 67.05,-9.55 92.51,-28.65 25.67,-19.1 45.89,-49.63 60.87,-91.58zm-323.61 -158.43l324.73 0c-4.31,-49.07 -16.86,-85.77 -37.26,-110.31 -31.28,-38.02 -72.1,-57.12 -122.11,-57.12 -45.32,0 -83.34,15.17 -114.24,45.51 -30.71,30.34 -47.76,70.98 -51.12,121.92z"/>
   <path id="4" class="fil3" d="M7272.44 7487.97l-25.84 0 0 212.37 34.46 0c47.93,0 84.46,-9.19 109.73,-27.72 25.29,-18.54 37.84,-45.13 37.84,-79.77 0,-36.33 -12.36,-62.74 -37.28,-79.6 -24.9,-16.86 -64.61,-25.28 -118.92,-25.28zm-215.74 649.47l0 -795.55 204.69 0c62.92,0 112.92,4.49 149.82,13.67 36.89,9.19 69.67,24.54 98.32,46.07 29.58,21.54 52.61,48.51 68.92,80.9 16.29,32.39 24.34,66.67 24.34,102.82 0,80.53 -28.65,144.2 -85.96,191.4 -57.12,47.19 -134.83,70.79 -232.97,70.79 -10.1,0 -17.79,0 -23.03,-0.19 -5.06,-0.19 -9.93,-0.56 -14.23,-0.94l0 291.03 -189.9 0z"/>
   <path id="5" class="fil3" d="M7958.99 7768.51c-10.3,-5.81 -20.03,-10.12 -29.41,-12.55 -9.36,-2.62 -18.54,-3.93 -27.71,-3.93 -32.58,0 -60.12,13.67 -82.4,41.02 -22.29,27.15 -33.52,61.61 -33.52,102.99 0,38.77 9.74,71.17 29.4,97.02 19.67,25.84 43.45,38.76 71.73,38.76 11.24,0 22.85,-2.99 34.84,-8.99 11.99,-6.18 24.34,-15.35 37.08,-27.9l0 -226.42zm171.92 -125.47l0 309c0,38.77 0.75,71.35 2.25,97.76 1.49,26.22 3.55,48.69 6.55,67.41l-159.37 43.83 -15.35 -47c-21.54,15.91 -42.7,27.9 -63.49,35.58 -20.6,7.68 -42.32,11.42 -64.98,11.42 -63.87,0 -117.43,-25.47 -160.69,-76.22 -43.45,-50.93 -65.18,-114.24 -65.18,-189.9 0,-79.79 24.35,-145.7 73.05,-197.58 48.69,-51.87 110.3,-77.9 184.65,-77.9 17.04,0 35.02,2.43 53.75,7.12 18.73,4.68 39.32,11.99 61.99,21.9l146.82 -5.42z"/>
   <path id="6" class="fil3" d="M8262.57 8375.66l0 -732.62 171.91 0c17.23,-6.56 34.09,-11.43 50.94,-14.42 16.86,-3.19 34.09,-4.68 51.68,-4.68 71.16,0 129.98,24.71 176.23,73.97 46.26,49.44 69.48,113.11 69.48,191.01 0,80.71 -24.9,146.27 -74.9,196.08 -49.81,50 -115.18,74.92 -195.52,74.92 -10.68,0 -21.91,-0.56 -34.09,-1.88 -11.99,-1.31 -26.97,-3.18 -44.94,-5.8l0 194.39 -170.79 29.03zm171.91 -352.08c11.99,3.36 22.48,5.61 31.09,7.12 8.81,1.49 16.86,2.25 24.16,2.25 33.34,0 61.06,-13.67 83.34,-41.2 22.29,-27.34 33.34,-62.18 33.34,-104.12 0,-39.15 -10.12,-71.54 -30.34,-97.19 -20.23,-25.65 -45.32,-38.39 -75.28,-38.39 -9.19,0 -18.91,0.94 -29.03,3 -10.3,2.06 -22.67,5.42 -37.28,10.1l0 258.45z"/>
   <path id="7" class="fil3" d="M9017.11 7844.17l214.24 -6.55 0 -7.68c0,-26.03 -9.17,-47.38 -27.35,-64.05 -18.35,-16.67 -41.38,-25.09 -69.11,-25.09 -30.9,0 -56.93,8.99 -77.72,27.15 -20.78,18.17 -34.09,43.64 -40.08,76.22zm327.73 116.86l-19.1 151.88c-33.71,15.93 -66.86,27.91 -99.44,35.58 -32.58,7.68 -65.36,11.43 -98.7,11.43 -82.4,0 -148.69,-23.61 -199.26,-70.99 -50.38,-47.38 -75.66,-109.18 -75.66,-185.21 0,-79.4 27.52,-146.44 82.77,-201.13 55.25,-54.68 122.48,-82.03 201.5,-82.03 67.61,0 123.05,20.04 166.5,60.12 43.25,40.08 64.98,91.95 64.98,155.62 0,9.74 -0.74,25.48 -2.25,47.2l-0.56 3.18 -15.35 22.29 -336.91 9.36c2.62,33.34 16.48,60.49 41.58,81.28 25.28,20.78 57.12,31.09 95.32,31.09 27.15,0 57.12,-5.81 90.27,-17.61 32.96,-11.61 67.79,-29.03 104.31,-52.06z"/>
   <path id="8" class="fil3" d="M9640.36 8137.45l-173.04 0 0 -494.4 161.05 0 3.19 86.7c19.66,-34.64 42.89,-59.74 69.29,-75.47 26.4,-15.73 59.37,-23.6 98.88,-23.6l13.67 0 0 184.27 -17.97 0 -19.29 0c-53.57,0 -89.7,6.19 -108.06,18.36 -18.54,12.36 -27.71,41.76 -27.71,88.58l0 215.55z"/>
   <circle class="fil4 str1" cx="4462.46" cy="4358.53" r="147.34"/>
   <circle class="fil4 str1" cx="4480.93" cy="3202.25" r="147.34"/>
   <circle class="fil4 str1" cx="5084.8" cy="1952.63" r="147.34"/>
   <circle class="fil4 str1" cx="8595.81" cy="941.74" r="147.34"/>
   <circle class="fil4 str1" cx="10372.49" cy="5144.33" r="147.34"/>
   <circle class="fil4 str1" cx="4720.89" cy="8089.09" r="147.34"/>
   <circle class="fil4 str1" cx="10328.53" cy="8548.57" r="147.34"/>
  </g>
 </g>
</svg>
