<svg width="80" height="64" viewBox="0 0 80 64" fill="none" xmlns="http://www.w3.org/2000/svg">
<path fill-rule="evenodd" clip-rule="evenodd" d="M27.1057 2.55276C27.3527 2.05878 27.9534 1.85856 28.4474 2.10555L55.114 15.4389C55.4528 15.6083 55.6668 15.9545 55.6668 16.3333C55.6668 25.1447 53.31 35.7242 48.7454 44.7468C44.1881 53.7549 37.344 61.3703 28.2749 63.9615C28.0953 64.0128 27.905 64.0128 27.7254 63.9615C18.6563 61.3703 11.8122 53.7549 7.25487 44.7468C2.69026 35.7242 0.333496 25.1447 0.333496 16.3333C0.333496 15.9545 0.547498 15.6083 0.886282 15.4389L14.2196 8.77221C14.7136 8.52522 15.3143 8.72545 15.5613 9.21943C15.8082 9.71341 15.608 10.3141 15.114 10.5611L2.33745 16.9494C2.44454 25.3256 4.72352 35.3129 9.03949 43.844C13.4202 52.503 19.8153 59.5062 28.0002 61.9581C36.185 59.5062 42.5801 52.503 46.9608 43.844C51.2768 35.3129 53.5558 25.3256 53.6629 16.9494L27.5529 3.8944C27.059 3.64741 26.8587 3.04674 27.1057 2.55276ZM38.7076 25.6262C39.0981 26.0167 39.0981 26.6499 38.7076 27.0404L25.3743 40.3737C24.9837 40.7643 24.3506 40.7643 23.9601 40.3738L17.2931 33.7071C16.9025 33.3166 16.9025 32.6834 17.293 32.2929C17.6835 31.9024 18.3167 31.9023 18.7072 32.2929L24.6671 38.2524L37.2934 25.6262C37.6839 25.2357 38.3171 25.2357 38.7076 25.6262Z" fill="#00BF72"/>
</svg>
