<svg width="80" height="64" viewBox="0 0 80 64" fill="none" xmlns="http://www.w3.org/2000/svg">
<path fill-rule="evenodd" clip-rule="evenodd" d="M13.5 18H1C0.447715 18 0 18.4477 0 19L2.5034e-06 29C2.5034e-06 29.5523 0.447716 30 1 30L4 30V63C4 63.5523 4.44772 64 5 64H51C51.5523 64 52 63.5523 52 63V43C52 42.4477 51.5523 42 51 42C50.4477 42 50 42.4477 50 43V62H6V30L14.6668 30C15.2191 30 15.6668 29.5523 15.6668 29C15.6668 28.4478 15.2191 28 14.6668 28L2 28L2 20H54V28H27.8805C27.3282 28 26.8805 28.4477 26.8805 29C26.8805 29.5523 27.3282 30 27.8805 30L55 30C55.5523 30 56 29.5523 56 29V19C56 18.4477 55.5523 18 55 18H42C43.7974 17.1603 45.2208 16.3402 46.1041 14.8059C47.1712 12.9525 47.1324 10.7452 45.7398 8.33327C44.3473 5.92145 42.4551 4.78427 40.3165 4.78174C38.2764 4.77933 36.2219 5.81349 34.4073 7.23789C31.7862 9.29535 29.382 12.3929 27.8805 15.3275C26.379 12.3929 23.9748 9.29535 21.3537 7.23789C19.5392 5.81349 17.4846 4.77933 15.4445 4.78174C13.306 4.78427 11.4138 5.92145 10.0214 8.33328C8.62885 10.7452 8.59003 12.9525 9.65704 14.8059C10.5403 16.3402 11.7027 17.1603 13.5 18ZM29.0436 18.1239C29.0121 18.0221 28.979 17.9195 28.9443 17.8162C30.1306 14.7922 32.743 11.0869 35.6422 8.81109C37.304 7.50665 38.9239 6.7801 40.3142 6.78174C41.606 6.78327 42.9002 7.41491 44.0078 9.33329C45.1154 11.2518 45.0154 12.6885 44.3709 13.808C43.6772 15.0129 42.238 16.0526 40.2775 16.8395C36.8263 18.2247 32.2607 18.6294 29.0436 18.1239ZM26.8167 17.8162C25.6304 14.7922 23.018 11.0869 20.1188 8.81108C18.4571 7.50665 16.8372 6.7801 15.4469 6.78174C14.1551 6.78327 12.861 7.4149 11.7534 9.33327C10.6458 11.2518 10.7458 12.6885 11.3903 13.808C12.084 15.0129 13.5231 16.0526 15.4836 16.8395C18.9347 18.2247 23.5003 18.6294 26.7174 18.1239C26.7489 18.0221 26.782 17.9195 26.8167 17.8162Z" fill="#00BF72"/>
</svg>
