<svg width="24" height="24" viewBox="0 0 24 24" fill="none" xmlns="http://www.w3.org/2000/svg">
<path fill-rule="evenodd" clip-rule="evenodd" d="M16 2H18C18.5523 2 19 2.44772 19 3V5C19 5.55228 18.5523 6 18 6H16C15.4477 6 15 5.55228 15 5V3C15 2.44772 15.4477 2 16 2ZM13 3C13 1.34315 14.3431 0 16 0H18C19.6569 0 21 1.34315 21 3H23C23.5523 3 24 3.44772 24 4C24 4.55228 23.5523 5 23 5H21C21 6.65685 19.6569 8 18 8H16C14.3431 8 13 6.65685 13 5H1C0.447716 5 0 4.55228 0 4C0 3.44772 0.447715 3 1 3H13ZM5 10H7C7.55228 10 8 10.4477 8 11V13C8 13.5523 7.55228 14 7 14H5C4.44772 14 4 13.5523 4 13V11C4 10.4477 4.44772 10 5 10ZM2 11C2 9.34315 3.34315 8 5 8H7C8.65685 8 10 9.34315 10 11H23C23.5523 11 24 11.4477 24 12C24 12.5523 23.5523 13 23 13H10C10 14.6569 8.65685 16 7 16H5C3.34315 16 2 14.6569 2 13H1C0.447716 13 0 12.5523 0 12C0 11.4477 0.447715 11 1 11H2ZM17 18C16.4477 18 16 18.4477 16 19V21C16 21.5523 16.4477 22 17 22H19C19.5523 22 20 21.5523 20 21V19C20 18.4477 19.5523 18 19 18H17ZM22 19C22 17.3431 20.6569 16 19 16H17C15.3431 16 14 17.3431 14 19H1C0.447715 19 0 19.4477 0 20C0 20.5523 0.447716 21 1 21H14C14 22.6569 15.3431 24 17 24H19C20.6569 24 22 22.6569 22 21H23C23.5523 21 24 20.5523 24 20C24 19.4477 23.5523 19 23 19H22Z" fill="#272A43"/>
</svg>
