<svg width="80" height="64" viewBox="0 0 80 64" fill="none" xmlns="http://www.w3.org/2000/svg">
<path fill-rule="evenodd" clip-rule="evenodd" d="M55 14C55 13.4477 55.4477 13 56 13H66C66.5523 13 67 13.4477 67 14C67 14.5523 66.5523 15 66 15H56C55.4477 15 55 14.5523 55 14ZM76.3827 13.4095C76.7564 13.5643 77 13.9289 77 14.3334V34.3334C77 34.8857 76.5523 35.3334 76 35.3334C75.4477 35.3334 75 34.8857 75 34.3334V16.7476L43.0404 48.7071C42.6499 49.0977 42.0168 49.0977 41.6262 48.7071L29 36.0809L1.70711 63.3738C1.31658 63.7643 0.683417 63.7643 0.292893 63.3738C-0.0976311 62.9833 -0.0976311 62.3501 0.292893 61.9596L28.2929 33.9596C28.6834 33.5691 29.3166 33.5691 29.7071 33.9596L42.3333 46.5858L75.2929 13.6263C75.5789 13.3403 76.009 13.2547 76.3827 13.4095Z" fill="#00BF72"/>
</svg>
