<svg width="80" height="64" viewBox="0 0 80 64" fill="none" xmlns="http://www.w3.org/2000/svg">
<path fill-rule="evenodd" clip-rule="evenodd" d="M24.7069 0.292893C24.3164 -0.0976311 23.6833 -0.0976311 23.2927 0.292893L0.292893 23.6287C0.105357 23.8162 0 24.0706 0 24.3358V63C0 63.5523 0.447715 64 1 64C1.55228 64 2 63.5523 2 63V24.75L23.9998 2.41421L34.9594 13.3738C35.3499 13.7643 35.9831 13.7643 36.3736 13.3738C36.7641 12.9832 36.7641 12.3501 36.3736 11.9596L24.7069 0.292893ZM48 24C48 23.4477 47.5523 23 47 23C46.4477 23 46 23.4477 46 24V62H14C13.4477 62 13 62.4477 13 63C13 63.5523 13.4477 64 14 64H47C47.5523 64 48 63.5523 48 63V24ZM32 28C32 26.8954 32.8954 26 34 26C35.1046 26 36 26.8954 36 28C36 29.1046 35.1046 30 34 30C32.8954 30 32 29.1046 32 28ZM34 24C31.7909 24 30 25.7909 30 28C30 28.7418 30.2019 29.4364 30.5538 30.0319L26.7573 33.8283C25.9669 33.3049 25.0191 33 24 33C22.9809 33 22.0331 33.3049 21.2427 33.8283L18.7077 31.2933C18.8951 30.9017 19 30.4631 19 30C19 28.3431 17.6569 27 16 27C14.3431 27 13 28.3431 13 30C13 31.6569 14.3431 33 16 33C16.4632 33 16.9018 32.895 17.2935 32.7076L19.8284 35.2425C19.3049 36.033 19 36.9809 19 38C19 39.0398 19.3174 40.0055 19.8606 40.8054L15.9451 45.504C15.3693 45.1829 14.706 45 14 45C11.7909 45 10 46.7909 10 49C10 51.2091 11.7909 53 14 53C16.2091 53 18 51.2091 18 49C18 48.224 17.779 47.4996 17.3966 46.8863L21.2963 42.2067C21.8078 42.5361 22.3833 42.7748 23 42.9V46.126C21.2748 46.5701 20 48.1362 20 50C20 52.2091 21.7909 54 24 54C26.2091 54 28 52.2091 28 50C28 48.1362 26.7252 46.5701 25 46.126V42.9C27.2822 42.4367 29 40.419 29 38C29 36.9809 28.6951 36.033 28.1716 35.2425L31.968 31.4461C32.5635 31.7981 33.2582 32 34 32C36.2091 32 38 30.2091 38 28C38 25.7909 36.2091 24 34 24ZM21 38C21 36.3431 22.3431 35 24 35C25.6569 35 27 36.3431 27 38C27 39.6569 25.6569 41 24 41C22.3431 41 21 39.6569 21 38ZM24 48C22.8954 48 22 48.8954 22 50C22 51.1046 22.8954 52 24 52C25.1046 52 26 51.1046 26 50C26 48.8954 25.1046 48 24 48ZM12 49C12 47.8954 12.8954 47 14 47C15.1046 47 16 47.8954 16 49C16 50.1046 15.1046 51 14 51C12.8954 51 12 50.1046 12 49ZM16 29C15.4477 29 15 29.4477 15 30C15 30.5523 15.4477 31 16 31C16.5523 31 17 30.5523 17 30C17 29.4477 16.5523 29 16 29Z" fill="#00BF72"/>
</svg>
