<svg width="28" height="28" viewBox="0 0 28 28" fill="none" xmlns="http://www.w3.org/2000/svg">
<path fill-rule="evenodd" clip-rule="evenodd" d="M0 14C0 6.2692 6.2692 0 14 0C21.7308 0 28 6.2692 28 14C28 21.7308 21.7308 28 14 28C6.2692 28 0 21.7308 0 14ZM22.1667 7.2729L20.8635 8.51968C20.7519 8.60339 20.6947 8.74494 20.7185 8.8831V18.0481C20.6947 18.1856 20.7525 18.3272 20.8642 18.4116L22.1368 19.6577V19.9306H15.7314V19.657L17.0517 18.3796C17.1796 18.2516 17.1796 18.2115 17.1796 18.0162V10.611L13.5094 19.9067H13.0133L8.74482 10.611V16.8408C8.70739 17.1042 8.79518 17.3662 8.98097 17.5554L10.696 19.6304V19.9033H5.8334V19.6338L7.5484 17.5554C7.73079 17.3669 7.81518 17.1001 7.76822 16.8408V9.63851C7.78796 9.43911 7.71038 9.24107 7.56202 9.10564L6.03961 7.2729V7H10.7736L14.4343 15.0088L17.6519 7H22.1667V7.2729Z" fill="white"/>
</svg>
