<svg width="223" height="74" viewBox="0 0 223 74" fill="none" xmlns="http://www.w3.org/2000/svg">
<path fill-rule="evenodd" clip-rule="evenodd" d="M131.476 30.7817H136.607C138.587 30.7817 140.192 32.3868 140.192 34.3668C140.192 36.3468 138.587 37.9519 136.607 37.9519H133.655L133.655 43.1303H131.476L131.476 37.9519H131.476V35.5618H131.476H133.655H136.818C137.478 35.5618 138.013 35.0268 138.013 34.3668C138.013 33.7068 137.478 33.1718 136.818 33.1718H131.476V30.7817Z" fill="white"/>
<path fill-rule="evenodd" clip-rule="evenodd" d="M144.55 43.1303L144.55 30.7817L146.817 30.7817L146.817 35.9602L151.727 35.9602V30.7817L153.993 30.7817L153.993 43.1303H151.727L151.727 38.3502L146.817 38.3502V43.1303H144.55Z" fill="white"/>
<path fill-rule="evenodd" clip-rule="evenodd" d="M119.127 30.7817V40.8149V43.1303H127.117V40.8149H121.41L121.41 30.7817L119.127 30.7817Z" fill="white"/>
<rect x="158.352" y="43.1302" width="12.3485" height="2.17912" transform="rotate(-90 158.352 43.1302)" fill="white"/>
<path fill-rule="evenodd" clip-rule="evenodd" d="M96.2457 30.7817H92.9771V33.0971H96.6726C98.8038 33.0971 100.531 34.8248 100.531 36.956C100.531 39.0872 98.8038 40.8149 96.6726 40.8149H92.9771V43.1303H96.2457C99.6557 43.1303 102.42 40.366 102.42 36.956C102.42 33.546 99.6557 30.7817 96.2457 30.7817Z" fill="white"/>
<path fill-rule="evenodd" clip-rule="evenodd" d="M106.052 30.7817H114.042V33.0971H106.052V30.7817ZM106.052 35.7983H113.281V38.1137H106.052V35.7983ZM114.042 40.8149H106.052V43.1303H114.042V40.8149Z" fill="white"/>
<path fill-rule="evenodd" clip-rule="evenodd" d="M190.497 33.0456L195.397 43.1303H193.045L189.298 35.4184L185.401 43.1303H183.049L188.145 33.0456H188.145L189.321 30.7817L190.497 33.0456Z" fill="white"/>
<path fill-rule="evenodd" clip-rule="evenodd" d="M219.342 38.1137L216.492 38.1137C216.489 38.1137 216.487 38.1137 216.484 38.1137H216.288C215.792 38.1137 215.313 37.9923 214.888 37.7712C213.597 37.1701 212.831 35.8547 212.831 34.4477C212.831 32.5296 214.47 30.7817 216.492 30.7817H222.593V33.0971L216.492 33.0971C215.818 33.0971 215.271 33.8083 215.271 34.4477C215.271 35.0867 215.817 35.7974 216.49 35.7983C216.491 35.7983 216.491 35.7983 216.492 35.7983L219.339 35.7983C219.34 35.7983 219.341 35.7983 219.341 35.7983H219.836C220.517 35.7983 221.149 36.0437 221.64 36.457C222.505 37.0744 223 38.1055 223 39.4643C223 41.3824 221.361 43.1303 219.339 43.1303L213.237 43.1303L213.237 40.8149L219.339 40.8149C220.013 40.8149 220.559 40.1037 220.559 39.4643C220.559 38.8259 220.015 38.1159 219.342 38.1137Z" fill="white"/>
<path fill-rule="evenodd" clip-rule="evenodd" d="M199.756 30.7817H204.999C206.918 30.7817 208.472 32.3367 208.472 34.2548C208.472 35.2823 208.026 36.2057 207.317 36.8416C208.028 37.5045 208.472 38.4495 208.472 39.4984C208.472 41.5042 206.846 43.1303 204.841 43.1303H199.756V40.9511H204.841C205.643 40.9511 206.293 40.3007 206.293 39.4984C206.293 38.696 205.643 38.0456 204.841 38.0456H199.756V37.7278V35.8664V35.8664H204.841C205.643 35.8664 206.293 35.216 206.293 34.4137C206.293 33.6113 205.643 32.9609 204.841 32.9609H199.756V30.7817Z" fill="white"/>
<path fill-rule="evenodd" clip-rule="evenodd" d="M172.153 30.7817L172.153 40.8149H172.153V43.1303H180.143V40.8149H174.436L174.436 30.7817L172.153 30.7817Z" fill="white"/>
<path fill-rule="evenodd" clip-rule="evenodd" d="M14.5489 25.2838C14.3177 25.3371 14.0865 25.3904 13.873 25.4259C14.5133 27.343 14.8691 27.556 16.6477 26.917C22.3392 25.1418 25.683 21.3786 26.5368 15.4851C26.9636 12.3609 27.6751 9.30765 29.6671 6.75146C31.3746 4.55029 33.58 3.2722 36.4258 3.3432C40.1253 3.41421 42.402 5.54437 44.1094 8.45558C44.2425 8.7212 44.4032 8.98683 44.5744 9.26965L44.5744 9.26981L44.5746 9.27011C44.6779 9.44077 44.785 9.61771 44.892 9.80468C45.3301 9.58605 45.7143 9.36742 46.1276 9.1322L46.1277 9.13214L46.1278 9.13209L46.1279 9.13199L46.128 9.13195L46.1281 9.13192C46.3857 8.98527 46.6547 8.83217 46.9552 8.6686C46.6699 8.22855 46.413 7.79793 46.1637 7.3802L46.1637 7.38015C45.7292 6.65202 45.3181 5.96301 44.8209 5.33135C41.8328 1.42606 36.6393 -0.0650543 32.3706 1.78108C29.3825 3.05918 27.177 5.40236 26.0387 8.38458C25.1139 10.7988 24.5447 13.426 24.1178 15.9821C23.2641 20.9525 20.2049 24.2188 15.2248 25.1418C15.0114 25.1773 14.7801 25.2306 14.5489 25.2838ZM57.9114 49.4552L57.9115 49.4551C58.2208 49.3957 58.5765 49.3273 58.9785 49.2127C58.1959 47.4375 57.5556 47.1535 55.9193 47.7216C50.5123 49.5677 47.0974 53.118 46.1725 58.9404L46.1725 58.9405C45.8168 60.9996 45.4611 63.0587 44.6785 64.9759C43.6113 67.8161 41.6904 70.0882 38.6312 71.0113C34.6471 72.1474 30.8053 70.3013 28.5998 66.254C28.4684 65.948 28.2831 65.6689 28.0937 65.3836C27.9754 65.2055 27.8555 65.0249 27.7461 64.8339C27.5623 64.9439 27.388 65.0493 27.2195 65.1511L27.219 65.1513C26.7355 65.4435 26.2999 65.7067 25.8252 65.9699C26.0347 66.3184 26.2099 66.6498 26.3761 66.964C26.5485 67.2901 26.7112 67.5978 26.8924 67.8871C26.9865 68.028 27.0806 68.1723 27.1754 68.3178C27.5109 68.8323 27.8559 69.3614 28.2441 69.8042C32.5128 74.7746 39.4849 75.0586 43.8959 70.2303C45.3188 68.6681 46.4571 66.609 47.2397 64.6208C47.8152 63.1066 48.0829 61.5156 48.354 59.9043L48.354 59.9043L48.354 59.9042L48.354 59.9042L48.354 59.9041L48.354 59.9041L48.3541 59.9041C48.4516 59.3242 48.5496 58.7418 48.6626 58.1594C49.5163 53.473 53.0024 50.1357 57.6979 49.4967C57.7664 49.483 57.8376 49.4694 57.9114 49.4552ZM64.1721 24.5028C62.96 24.2382 62.3932 24.1145 62.2034 23.778C62.0366 23.4825 62.1606 23.0229 62.3934 22.1597C64.3143 15.0591 59.1208 9.59173 51.9352 11.3669C50.5535 11.6803 49.2273 12.381 47.9076 13.0783L47.9074 13.0784L47.9072 13.0785L47.907 13.0786L47.9067 13.0787C47.7317 13.1712 47.5569 13.2636 47.382 13.355C46.6136 13.764 45.919 14.2834 45.2185 14.8073C44.9461 15.011 44.6728 15.2154 44.3939 15.4142C39.485 18.8224 34.4337 18.7514 29.2402 15.9822C27.9596 15.2722 28.2441 14.3491 28.8133 13.142C29.3113 13.426 29.7382 13.71 30.165 13.9941C34.078 16.6213 38.3466 16.6213 42.2596 14.0651C42.8199 13.6922 43.353 13.2922 43.8827 12.8948L43.8827 12.8947C44.5636 12.3838 45.2388 11.8772 45.9591 11.4379C48.5203 9.80474 51.2949 8.81067 54.4253 8.81067C61.2551 8.81067 66.0929 14.4201 65.0258 21.1656C64.9118 21.6966 64.7572 22.2682 64.5945 22.8694L64.5944 22.8697L64.594 22.8711L64.594 22.8713L64.5939 22.8714L64.5939 22.8716L64.5938 22.8718L64.5937 22.8723L64.5935 22.873L64.5933 22.8738C64.4518 23.3967 64.3042 23.9421 64.1721 24.5028ZM10.5612 50.8064C10.3565 50.4958 9.7881 50.4249 8.60867 50.2777C8.56006 50.4354 8.50937 50.5951 8.45803 50.7569L8.45802 50.757C8.20878 51.5425 7.94406 52.3768 7.82608 53.2599C6.47433 60.4314 11.5256 66.3959 18.8535 65.9698C20.7032 65.8278 22.6241 65.3308 24.3316 64.5497C26.1813 63.6977 27.96 62.4906 29.5963 61.2835C34.0072 58.0173 38.7028 57.8753 43.1137 61.1415C43.2649 61.2923 43.4517 61.372 43.649 61.4561L43.6491 61.4561L43.6497 61.4564C43.7307 61.4909 43.8135 61.5262 43.8963 61.5675C44.75 60.0054 44.4655 59.2244 42.9003 58.4433C37.849 55.9581 32.9401 56.1001 28.2445 59.3664C26.3236 60.7155 24.3316 62.0646 22.1973 62.9166C19.2092 64.1237 16.0077 64.2657 13.2331 62.1356C10.3161 59.9344 9.32011 56.5262 10.3873 52.5499C10.6273 51.5917 10.7516 51.0953 10.5612 50.8064ZM22.9087 11.6507C22.1261 11.5087 21.3436 11.2957 20.561 11.0827L20.5609 11.0827C13.5177 9.59158 8.4664 14.775 10.1027 21.7335C10.685 24.1225 11.9732 26.1005 13.2719 28.0947L13.2721 28.095L13.2723 28.0954C13.4017 28.2939 13.5311 28.4927 13.6599 28.692C14.7983 30.3961 15.8654 32.2423 16.4346 34.1594C17.5017 37.6387 16.7192 40.9759 15.0828 44.1712C14.4425 45.4493 13.6599 45.5203 12.0236 44.5262C12.1659 44.2777 12.326 44.0292 12.486 43.7807L12.4861 43.7806L12.4861 43.7805C12.6462 43.532 12.8062 43.2836 12.9485 43.0351C15.5808 38.9168 15.4386 34.7985 12.5928 30.8222C11.4545 29.189 10.3162 27.5559 9.32013 25.8518C7.8261 23.2246 7.25695 20.3134 7.68381 17.3312C8.60869 11.4377 14.0868 7.67444 20.2764 8.81052L20.2764 8.81053C20.8456 8.95254 21.4147 9.09455 22.055 9.23655C23.7624 9.8046 23.8336 9.8756 22.9087 11.6507ZM5.90484 30.3963C6.82972 29.7572 7.75459 29.1892 8.67947 28.6211C8.11032 27.059 7.89688 26.846 7.25658 27.13C2.34762 28.9052 -0.782734 34.3726 0.284432 39.343C1.06702 42.9642 3.34364 45.6624 6.61628 47.0825C9.17748 48.2186 12.0233 48.8577 14.7979 49.3547C19.9203 50.2778 22.9795 53.047 24.0467 58.0884C24.1178 58.5854 24.2601 59.1534 24.4024 59.6505C26.5367 58.7984 26.7502 58.4434 26.0387 56.5262C24.1178 50.9878 20.2049 47.9346 14.4422 47.1535C11.383 46.7275 8.39489 46.0885 5.90484 44.1713C0.853588 40.408 0.853588 34.1596 5.90484 30.3963ZM60.1882 30.7866L60.1881 30.7867C60.028 31.0352 59.8679 31.2838 59.6901 31.5323C57.0577 35.6506 57.2 40.1949 60.1881 44.0292C62.3936 46.8694 64.3856 49.8516 64.8836 53.5439C65.4528 57.6622 64.4567 61.1415 61.0418 63.7687C57.6269 66.4669 53.7851 66.4669 49.8721 65.1888C48.8391 64.8279 49.0811 64.2799 49.3456 63.6807C49.4455 63.4545 49.5486 63.2211 49.5876 62.9876C50.0265 63.0752 50.4533 63.1748 50.8681 63.2717C51.462 63.4102 52.0311 63.5431 52.5756 63.6267C58.9786 64.7627 63.8164 59.9344 62.607 53.5439C62.0378 50.6327 60.5438 48.1475 58.7652 45.8043C55.208 41.189 54.71 36.2896 57.1289 31.0352C58.1249 29.1891 58.694 28.9761 60.6861 30.0412C60.5083 30.2896 60.3482 30.5381 60.1882 30.7866ZM65.054 45.3806C64.6861 45.5969 64.299 45.8245 63.8877 46.0884C64.0299 46.2709 64.1315 46.5056 64.2306 46.7345C64.4785 47.3069 64.7108 47.8433 65.524 47.4375C69.5792 45.4493 72.8519 42.1831 72.6384 36.7157C72.425 31.6743 69.2946 28.7631 65.026 26.917C63.0827 26.1036 60.9185 25.7313 58.7767 25.3628C58.4877 25.3131 58.1991 25.2635 57.9115 25.2128C52.8603 24.3608 49.6588 21.3786 48.6628 16.3372C48.6129 15.9885 48.5279 15.6747 48.4326 15.3224C48.392 15.1725 48.3495 15.0156 48.3071 14.8461C48.0986 14.9798 47.8745 15.095 47.655 15.2077C46.8262 15.6334 46.0635 16.0251 46.4573 17.2602C47.6668 21.2365 49.9434 24.5028 53.9275 26.1359C55.5781 26.8223 57.4282 27.177 59.2206 27.5205C59.2823 27.5324 59.344 27.5442 59.4056 27.556C61.9668 28.0531 64.4568 28.6921 66.5912 30.2542C71.927 34.0885 71.927 40.692 66.52 44.4553C66.0606 44.7887 65.5768 45.0732 65.054 45.3806Z" fill="white"/>
</svg>
