<svg width="124" height="44" viewBox="0 0 124 44" fill="none" xmlns="http://www.w3.org/2000/svg">
  <g clip-path="url(#clip0_3281:5666)">
    <path d="M22.2446 43.7582C34.3949 43.7582 44.2446 34.0167 44.2446 21.9999C44.2446 18.4059 43.3636 15.0154 41.8034 12.0282C41.7032 11.8364 41.4147 11.8656 41.3373 12.0673C40.3307 14.6904 37.7854 16.5261 34.9445 16.6719C34.7683 16.6809 34.6493 16.8606 34.7153 17.0223C35.3433 18.5598 35.6891 20.2399 35.6891 21.9999C35.6891 29.3435 29.6698 35.2966 22.2446 35.2966C20.5584 35.2966 18.9447 34.9896 17.4575 34.429C17.2926 34.3669 17.1133 34.4883 17.1077 34.6627C17.0178 37.4741 15.2081 40.0274 12.5774 41.0741C12.375 41.1546 12.3512 41.4404 12.547 41.5357C15.4725 42.9588 18.7642 43.7582 22.2446 43.7582Z" fill="#00BF72"/>
    <path d="M27.0318 9.57087C27.1967 9.63302 27.376 9.5116 27.3816 9.33719C27.4715 6.52578 29.2812 3.97244 31.9119 2.92581C32.1143 2.84527 32.1381 2.55946 31.9423 2.46421C29.0168 1.04103 25.7251 0.241699 22.2446 0.241699C10.0944 0.241699 0.244629 9.9832 0.244629 21.9999C0.244629 25.594 1.12571 28.9845 2.68591 31.9717C2.78605 32.1635 3.07452 32.1343 3.15194 31.9326C4.15852 29.3095 6.70382 27.4738 9.5448 27.328C9.72093 27.319 9.84 27.1393 9.77394 26.9776C9.14594 25.4401 8.80019 23.76 8.80019 21.9999C8.80019 14.6564 14.8195 8.70324 22.2446 8.70324C23.9309 8.70324 25.5446 9.01026 27.0318 9.57087Z" fill="#00BF72"/>
    <path d="M32.0224 21.9999C32.0224 27.3407 27.6448 31.6703 22.2446 31.6703C16.8445 31.6703 12.4669 27.3407 12.4669 21.9999C12.4669 16.6592 16.8445 12.3296 22.2446 12.3296C27.6448 12.3296 32.0224 16.6592 32.0224 21.9999Z" fill="#00BF72"/>
    <path d="M14.178 34.4505C14.178 36.7871 12.2627 38.6813 9.90019 38.6813C7.53763 38.6813 5.62241 36.7871 5.62241 34.4505C5.62241 32.1139 7.53763 30.2197 9.90019 30.2197C12.2627 30.2197 14.178 32.1139 14.178 34.4505Z" fill="#00BF72"/>
    <path d="M34.5891 13.7802C36.9516 13.7802 38.8669 11.886 38.8669 9.54939C38.8669 7.2128 36.9516 5.31862 34.5891 5.31862C32.2265 5.31862 30.3113 7.2128 30.3113 9.54939C30.3113 11.886 32.2265 13.7802 34.5891 13.7802Z" fill="#00BF72"/>
    <path d="M54.1567 12.6221C54.1567 14.7523 54.8542 16.5174 56.2286 17.8766C57.6234 19.2359 59.367 19.9257 61.4799 19.9257C63.5722 19.9257 65.3158 19.2359 66.7107 17.8563C68.1056 16.4565 68.803 14.7118 68.803 12.6221C68.803 10.4919 68.1056 8.72692 66.7107 7.36765C65.3363 6.00838 63.5927 5.3186 61.4799 5.3186C59.367 5.3186 57.6029 6.02867 56.2286 7.42852C54.8542 8.82836 54.1567 10.5528 54.1567 12.6221ZM56.0029 12.6221C56.0029 10.9788 56.5157 9.61958 57.5619 8.54433C58.6081 7.46909 59.9004 6.94161 61.4799 6.94161C63.0184 6.94161 64.3312 7.48938 65.3774 8.56462C66.4235 9.63987 66.9569 10.9788 66.9569 12.6221C66.9569 14.2452 66.444 15.6044 65.4184 16.6797C64.4133 17.7549 63.1004 18.3027 61.4799 18.3027C59.9414 18.3027 58.6286 17.7549 57.5824 16.6797C56.5363 15.5841 56.0029 14.2249 56.0029 12.6221Z" fill="white"/>
    <path d="M72.3615 14.0423H74.7L79.1103 19.7228H81.2437L76.4641 13.7177C77.3257 13.4945 78.0642 13.0482 78.659 12.3381C79.2744 11.6281 79.5821 10.7354 79.5821 9.70073C79.5821 6.88075 77.8795 5.4809 74.4744 5.4809C74.3718 5.4809 73.7769 5.4809 72.6898 5.50119C71.6026 5.52148 70.9256 5.52148 70.6179 5.52148V19.7228H72.3615V14.0423ZM74.3718 7.10391C76.6077 7.10391 77.736 7.97628 77.736 9.72102C77.736 10.5325 77.4077 11.1817 76.7513 11.6889C76.1154 12.1758 75.3564 12.4193 74.4744 12.4193H72.3615V7.14449C73.2641 7.1242 73.941 7.10391 74.3718 7.10391Z" fill="white"/>
    <path d="M85.0299 19.7228V5.52148H83.2863V19.7228H85.0299Z" fill="white"/>
    <path d="M86.7942 12.6221C86.7942 14.7523 87.4916 16.5174 88.866 17.8766C90.2609 19.2359 92.0045 19.9257 94.1173 19.9257C96.2096 19.9257 97.9533 19.2359 99.3481 17.8563C100.743 16.4565 101.44 14.7118 101.44 12.6221C101.44 10.4919 100.743 8.72692 99.3481 7.36765C97.9738 6.00838 96.2302 5.3186 94.1173 5.3186C92.0045 5.3186 90.2403 6.02867 88.866 7.42852C87.4916 8.82836 86.7942 10.5528 86.7942 12.6221ZM88.6403 12.6221C88.6403 10.9788 89.1532 9.61958 90.1993 8.54433C91.2455 7.46909 92.5378 6.94161 94.1173 6.94161C95.6558 6.94161 96.9686 7.48938 98.0148 8.56462C99.061 9.63987 99.5943 10.9788 99.5943 12.6221C99.5943 14.2452 99.0815 15.6044 98.0558 16.6797C97.0507 17.7549 95.7378 18.3027 94.1173 18.3027C92.5788 18.3027 91.266 17.7549 90.2198 16.6797C89.1737 15.5841 88.6403 14.2249 88.6403 12.6221Z" fill="white"/>
    <path d="M115.255 5.52148H113.614V16.7202L104.65 5.52148H103.255V19.7228H104.896V8.56462L113.861 19.7228H115.255V5.52148Z" fill="white"/>
    <path d="M56.5777 38.4498V27.0279L61.7265 34.0271H61.9932L67.0804 26.967V38.4498H68.824V24.2485H67.1625L61.9932 31.5318L56.5982 24.2485H54.8341V38.4498H56.5777Z" fill="white"/>
    <path d="M70.6214 31.3492C70.6214 33.4794 71.3189 35.2444 72.6932 36.6037C74.0881 37.9629 75.8317 38.6527 77.9446 38.6527C80.0369 38.6527 81.7805 37.9629 83.1754 36.5834C84.5703 35.1835 85.2677 33.4388 85.2677 31.3492C85.2677 29.219 84.5703 27.4539 83.1754 26.0947C81.801 24.7354 80.0574 24.0456 77.9446 24.0456C75.8317 24.0456 74.0676 24.7557 72.6932 26.1555C71.3189 27.5554 70.6214 29.2798 70.6214 31.3492ZM72.4676 31.3492C72.4676 29.7059 72.9804 28.3466 74.0266 27.2714C75.0728 26.1961 76.3651 25.6686 77.9446 25.6686C79.4831 25.6686 80.7959 26.2164 81.8421 27.2916C82.8882 28.3669 83.4216 29.7059 83.4216 31.3492C83.4216 32.9722 82.9087 34.3314 81.8831 35.4067C80.8779 36.4819 79.5651 37.0297 77.9446 37.0297C76.4061 37.0297 75.0933 36.4819 74.0471 35.4067C73.0009 34.3112 72.4676 32.9519 72.4676 31.3492Z" fill="white"/>
    <path d="M99.0827 24.2485H97.4417V35.4473L88.4775 24.2485H87.0826V38.4498H88.7237V27.2916L97.6879 38.4498H99.0827V24.2485Z" fill="white"/>
    <path d="M109.853 38.4498V36.8268H103.289V32.0795H109.032V30.4565H103.289V25.8715H109.648V24.2485H101.545V38.4498H109.853Z" fill="white"/>
    <path d="M121.427 24.2485L117.386 30.7405L113.365 24.2485H111.355L116.442 32.3635V38.4498H118.186V32.3635L123.335 24.2485H121.427Z" fill="white"/>
  </g>
  <defs>
    <clipPath id="clip0_3281:5666">
      <rect width="123.689" height="44" fill="white"/>
    </clipPath>
  </defs>
</svg>
