<svg width="44" height="44" viewBox="0 0 44 44" fill="none" xmlns="http://www.w3.org/2000/svg">
<circle cx="22" cy="22" r="16" fill="#00BF72"/>
<path fill-rule="evenodd" clip-rule="evenodd" d="M38.5635 33.1012C34.9846 38.4305 28.9019 41.9375 22 41.9375C15.4576 41.9375 9.6512 38.7863 6.01584 33.9188C7.69151 32.9944 9.31576 31.9851 10.8826 30.8958C11.5547 31.3327 12.3569 31.5865 13.2183 31.5865C14.436 31.5865 15.5352 31.0793 16.3163 30.2647C17.2731 30.593 18.2399 30.8953 19.2156 31.1713C22.4088 32.0746 25.6689 32.6872 28.9562 33.0059C29.6636 34.4044 31.1139 35.3631 32.7882 35.3631C34.375 35.3631 35.7607 34.5019 36.5034 33.2213C37.1903 33.1941 37.8771 33.1541 38.5635 33.1012ZM40.1833 30.1896C41.3103 27.6912 41.9375 24.9188 41.9375 22C41.9375 14.3561 37.6359 7.71697 31.3214 4.37118C30.9339 5.43326 30.5145 6.48217 30.0638 7.51655C30.7947 8.2861 31.2432 9.32644 31.2432 10.4715C31.2432 12.8417 29.3218 14.7632 26.9515 14.7632C26.7229 14.7632 26.4984 14.7453 26.2794 14.7109C24.8217 17.0483 23.1885 19.2791 21.3912 21.3832C20.0804 22.9177 18.6893 24.3765 17.2251 25.7541C17.4091 26.2323 17.5099 26.7518 17.5099 27.2948C17.5099 27.4523 17.5014 27.6079 17.4849 27.761C18.3037 28.0368 19.13 28.2927 19.9632 28.5284C22.7917 29.3285 25.6754 29.8886 28.5838 30.2064C28.984 28.2508 30.7143 26.7798 32.7882 26.7798C34.9465 26.7798 36.7326 28.373 37.0348 30.4475C38.0854 30.3931 39.1353 30.3071 40.1833 30.1896ZM9.92754 24.5398C10.7148 23.6004 11.8968 23.0032 13.2183 23.0032C14.0422 23.0032 14.812 23.2354 15.4656 23.6379C16.8124 22.3627 18.0935 21.0148 19.3028 19.5992C20.9671 17.6508 22.4833 15.5882 23.8415 13.4288C23.1093 12.6591 22.6599 11.6178 22.6599 10.4715C22.6599 8.10133 24.5813 6.17989 26.9515 6.17989C27.1813 6.17989 27.4068 6.19794 27.6267 6.2327C28.0491 5.25295 28.4421 4.2596 28.8049 3.25396C26.6814 2.48297 24.3898 2.0625 22 2.0625C11.7972 2.0625 3.38431 9.72636 2.20411 19.6114C4.63571 21.4792 7.2205 23.1272 9.92754 24.5398ZM2.08428 22.9403C2.22965 26.0713 3.09719 29.0136 4.52415 31.6045C6.12538 30.7285 7.67761 29.7713 9.17509 28.7373C9.01422 28.2865 8.92663 27.8009 8.92663 27.2948C8.92663 27.2351 8.92785 27.1757 8.93026 27.1165C6.5537 25.8932 4.26545 24.4979 2.08428 22.9403ZM44 22C44 34.1503 34.1503 44 22 44C9.84974 44 0 34.1503 0 22C0 9.84974 9.84974 0 22 0C34.1503 0 44 9.84974 44 22Z" fill="white"/>
</svg>
