<svg width="100" height="101" viewBox="0 0 100 101" fill="none" xmlns="http://www.w3.org/2000/svg">
<path d="M19.9249 33.4389C19.6066 33.5122 19.2882 33.5855 18.9944 33.6344C19.8759 36.2737 20.3656 36.5669 22.8142 35.6871C30.6497 33.2433 35.253 28.0625 36.4283 19.9491C37.016 15.648 37.9954 11.4447 40.7378 7.92565C43.0884 4.89535 46.1247 3.13582 50.0424 3.23357C55.1355 3.33132 58.2696 6.26388 60.6203 10.2717C60.8034 10.6372 61.0245 11.0026 61.26 11.3918L61.2606 11.3929C61.4028 11.6279 61.5502 11.8715 61.6977 12.129C62.3009 11.8279 62.8299 11.5269 63.3989 11.203C63.7536 11.0011 64.1244 10.7901 64.538 10.5649C64.1452 9.95912 63.7915 9.36628 63.4484 8.79117C62.8503 7.78877 62.2843 6.84022 61.5997 5.97062C57.4861 0.594275 50.3362 -1.45851 44.4597 1.08303C40.346 2.84256 37.3098 6.06837 35.7427 10.1739C34.4694 13.4975 33.6859 17.1143 33.0982 20.6334C31.9229 27.476 27.7114 31.9726 20.8553 33.2433C20.5615 33.2922 20.2432 33.3655 19.9249 33.4389Z" fill="white"/>
<path d="M79.6216 66.715C80.0473 66.6331 80.537 66.539 81.0905 66.3812C80.0131 63.9374 79.1316 63.5464 76.8789 64.3284C69.4352 66.87 64.7339 71.7575 63.4607 79.7732C62.971 82.608 62.4812 85.4428 61.4039 88.0821C59.9347 91.9921 57.2903 95.1202 53.0787 96.391C47.5939 97.955 42.305 95.4135 39.2687 89.8416C39.0878 89.4204 38.8328 89.0363 38.572 88.6435C38.4091 88.3983 38.244 88.1496 38.0934 87.8866C37.8415 88.0374 37.6026 88.1818 37.3716 88.3213L37.3684 88.3233C36.7026 88.7256 36.1027 89.0881 35.4489 89.4506C35.7373 89.9303 35.9785 90.3865 36.2073 90.8191C36.4447 91.2681 36.6687 91.6917 36.9181 92.0899C37.0476 92.2838 37.1771 92.4825 37.3077 92.6828C37.7696 93.3911 38.2445 94.1196 38.779 94.7292C44.6556 101.572 54.254 101.963 60.3265 95.3157C62.2854 93.1652 63.8525 90.3304 64.9298 87.5933C65.7221 85.5087 66.0906 83.3184 66.4639 81.1001C66.5982 80.3018 66.7332 79.4999 66.8887 78.6979C68.064 72.2463 72.8632 67.652 79.3275 66.7722L79.3999 66.7579L79.4953 66.7393L79.6216 66.715Z" fill="white"/>
<path d="M88.2404 32.3636C86.5718 31.9993 85.7915 31.8289 85.5301 31.3658C85.3005 30.959 85.4712 30.3262 85.7918 29.1378C88.4363 19.3626 81.2864 11.8357 71.3941 14.2795C69.492 14.711 67.6662 15.6757 65.8494 16.6356C65.6081 16.7631 65.3669 16.8905 65.1258 17.0166C64.068 17.5796 63.1117 18.2947 62.1473 19.0159C61.7723 19.2963 61.3961 19.5777 61.0122 19.8514C54.2541 24.5435 47.3001 24.4457 40.1503 20.6334C38.3873 19.6559 38.7791 18.3851 39.5626 16.7233C40.2482 17.1143 40.8359 17.5053 41.4235 17.8963C46.8104 21.5131 52.687 21.5131 58.0739 17.9941C58.8453 17.4808 59.5792 16.9301 60.3084 16.3829C61.2457 15.6796 62.1753 14.982 63.1669 14.3773C66.6929 12.129 70.5127 10.7605 74.8222 10.7605C84.2247 10.7605 90.8848 18.4828 89.4157 27.7693C89.2586 28.501 89.0455 29.2887 88.8213 30.1173C88.6262 30.8382 88.4226 31.5905 88.2404 32.3636Z" fill="white"/>
<path d="M14.4347 68.5752C14.1529 68.1477 13.3704 68.05 11.7468 67.8475C11.6799 68.0645 11.61 68.2844 11.5393 68.5071C11.1962 69.5885 10.8317 70.7372 10.6693 71.953C8.80839 81.826 15.7624 90.0371 25.8505 89.4506C28.397 89.2551 31.0415 88.5708 33.3921 87.4956C35.9387 86.3225 38.3872 84.6608 40.6399 82.999C46.7124 78.5024 53.1767 78.3069 59.2491 82.8035C59.4572 83.0112 59.7145 83.1208 59.986 83.2365C60.0979 83.2842 60.2122 83.3329 60.3265 83.39C61.5018 81.2394 61.1101 80.1642 58.9553 79.0889C52.0013 75.6676 45.2433 75.8631 38.779 80.3597C36.1345 82.217 33.3921 84.0742 30.4538 85.2473C26.3402 86.909 21.9328 87.1045 18.113 84.172C14.0973 81.1417 12.7261 76.4496 14.1953 70.9755C14.5257 69.6564 14.6969 68.973 14.4347 68.5752Z" fill="white"/>
<path d="M31.4333 14.6705C30.3559 14.475 29.2786 14.1817 28.2012 13.8885C18.5048 11.8357 11.5508 18.9715 13.8035 28.5512C14.6051 31.8401 16.3786 34.5632 18.1665 37.3085C18.3447 37.5822 18.5231 37.8562 18.7007 38.1309C20.2678 40.4769 21.7369 43.0185 22.5205 45.6578C23.9896 50.4476 22.9123 55.0419 20.6596 59.4408C19.7781 61.2003 18.7007 61.298 16.448 59.9295C16.6439 59.5874 16.8643 59.2452 17.0846 58.9031C17.305 58.561 17.5254 58.2189 17.7213 57.8767C21.3452 52.2071 21.1493 46.5375 17.2316 41.0634C15.6645 38.8151 14.0974 36.5669 12.7262 34.2208C10.6694 30.604 9.88581 26.5962 10.4735 22.4906C11.7467 14.3772 19.2884 9.19637 27.8094 10.7604C28.593 10.9559 29.3765 11.1514 30.258 11.3469C32.6086 12.1289 32.7066 12.2267 31.4333 14.6705Z" fill="white"/>
<path d="M11.8447 38.0332C11.0611 35.8826 10.7673 35.5894 9.88581 35.9804C3.12773 38.4242 -1.18177 45.9511 0.287381 52.7937C1.36476 57.779 4.49894 61.4936 9.00433 63.4486C12.5303 65.0126 16.448 65.8924 20.2678 66.5767C27.3197 67.8474 31.5313 71.6598 33.0004 78.6001C33.0984 79.2844 33.2942 80.0664 33.4901 80.7507C36.4284 79.5777 36.7223 79.0889 35.7428 76.4496C33.0984 68.825 27.7115 64.6216 19.7781 63.5464C15.5665 62.9599 11.4529 62.0801 8.02489 59.4408C1.07093 54.26 1.07093 45.6578 8.02489 40.477C9.2981 39.5972 10.5715 38.8152 11.8447 38.0332Z" fill="white"/>
<path d="M83.4412 39.9882C83.1964 40.3304 82.976 40.6725 82.7556 41.0146C82.5352 41.3567 82.3149 41.6989 82.07 42.041C78.4461 47.7106 78.642 53.9667 82.7556 59.2453C85.7918 63.1554 88.5342 67.261 89.2198 72.3441C90.0034 78.0137 88.6322 82.8035 83.9309 86.4203C79.2296 90.1349 73.9407 90.1349 68.5538 88.3753C67.1317 87.8786 67.4648 87.1242 67.829 86.2992C67.9665 85.9879 68.1084 85.6665 68.1621 85.345C68.7663 85.4656 69.3539 85.6028 69.925 85.7361C70.7424 85.9268 71.5261 86.1097 72.2757 86.2248C81.0906 87.7888 87.7507 81.1417 86.0857 72.3441C85.3021 68.3362 83.2453 64.9149 80.7967 61.6891C75.8996 55.3353 75.214 48.5904 78.544 41.3568C79.9152 38.8152 80.6988 38.522 83.4412 39.9882Z" fill="white"/>
<path d="M89.4541 61.1057C88.9477 61.4034 88.4148 61.7167 87.8485 62.0801C88.0443 62.3314 88.1842 62.6544 88.3207 62.9695C88.662 63.7576 88.9817 64.496 90.1012 63.9374C95.684 61.2003 100.189 56.7037 99.8955 49.1769C99.6017 42.2365 95.2922 38.2287 89.4156 35.6871C86.7403 34.5674 83.7609 34.0549 80.8123 33.5476C80.4144 33.4791 80.0172 33.4108 79.6213 33.3411C72.6673 32.1681 68.2599 28.0625 66.8887 21.1221C66.82 20.6421 66.703 20.2101 66.5717 19.7251C66.5159 19.5187 66.4574 19.3027 66.399 19.0693C66.1119 19.2535 65.8034 19.412 65.5013 19.5671C64.3602 20.1533 63.3104 20.6925 63.8524 22.3929C65.5175 27.867 68.6516 32.3636 74.1365 34.6119C76.4088 35.5568 78.9558 36.045 81.4234 36.5181C81.5084 36.5343 81.5933 36.5506 81.6781 36.5669C85.204 37.2512 88.6321 38.1309 91.5704 40.2815C98.9161 45.56 98.9161 54.651 91.4724 59.8318C90.84 60.2908 90.1739 60.6825 89.4541 61.1057Z" fill="white"/>
</svg>
