<svg width="88" height="88" viewBox="0 0 88 88" fill="none" xmlns="http://www.w3.org/2000/svg">
  <path d="M35.866 43.396L35.2084 42.7383C34.7118 42.2417 33.8662 42.5907 33.8662 43.2886V52.6434C33.8662 53.0728 34.2152 53.4218 34.6581 53.4218H44.0129C44.7108 53.4218 45.0597 52.5763 44.5631 52.0797C44.2544 51.771 44.2544 51.2744 44.5631 50.9791L54.5219 40.9935C54.8306 40.6848 54.8306 40.1882 54.5219 39.893L53.6092 38.9937C53.1126 38.4971 53.4616 37.6516 54.1595 37.6516H63.5142C63.9437 37.6516 64.3061 38.0005 64.3061 38.43V47.7848C64.3061 48.4827 63.4605 48.8317 62.9639 48.3351L62.3331 47.7043C62.0244 47.3956 61.5279 47.3956 61.2326 47.7043L44.4423 64.4811C44.1336 64.7898 43.6371 64.7898 43.3284 64.4811L22.7935 43.9463C22.4848 43.6376 22.4848 43.141 22.7935 42.8323L51.247 14.4325C51.5557 14.1238 51.5557 13.6272 51.247 13.3185L44.5631 6.6346C44.2544 6.3259 43.7578 6.3259 43.4492 6.6346L6.64754 43.4362C6.33884 43.7449 6.33884 44.2415 6.64754 44.5502L43.4492 81.3519C43.7578 81.6606 44.2544 81.6606 44.5631 81.3519L81.3648 44.5502C81.6735 44.2415 81.6735 43.7449 81.3648 43.4362L59.7025 21.8008C59.3938 21.4922 58.8972 21.4922 58.5886 21.8008L36.98 43.4094C36.6713 43.7047 36.1747 43.7047 35.866 43.396Z" fill="white"/>
</svg>
