<svg width="88" height="88" viewBox="0 0 88 88" fill="none" xmlns="http://www.w3.org/2000/svg">
  <path fill-rule="evenodd" clip-rule="evenodd" d="M30.495 9.84875C24.8433 9.84875 20.4958 15.0657 21.5827 20.7174L23.9738 33.9772C15.4962 37.6726 9.19238 44.1938 9.19238 52.2366V57.2362C9.19238 63.9748 13.5399 69.6265 19.6263 73.3219C25.9302 77.2346 34.1904 79.4084 43.5375 79.4084C52.8845 79.4084 61.1447 77.2346 67.4486 73.3219C73.7524 69.6265 78.0999 63.9748 78.0999 57.2362V52.2366C78.0999 44.1938 71.5787 37.6726 63.1011 33.9772L65.4922 20.7174C66.3617 15.0657 62.0142 9.84875 56.3625 9.84875C51.3629 9.84875 47.2328 13.9789 47.2328 18.9785V30.2819C45.9286 30.0645 44.8417 30.0645 43.5375 30.0645H43.5375C42.8853 30.0645 42.2332 30.1189 41.5811 30.1732C40.929 30.2275 40.2768 30.2819 39.6247 30.2819V18.9785C39.6247 13.9789 35.4946 9.84875 30.495 9.84875ZM43.7547 76.5825C61.1446 76.5825 75.2739 67.8876 75.2739 57.2362L75.1292 51.1498L43.7547 38.1074L12.2355 52.2366V57.2362C12.2355 67.8876 26.3648 76.5825 43.7547 76.5825Z" fill="#D6D6D6"/>
  <path fill-rule="evenodd" clip-rule="evenodd" d="M24.4088 20.2829C23.5393 16.3702 26.5825 12.6748 30.4952 12.6748C33.9732 12.6748 36.7991 15.5007 36.7991 18.9786V33.3253C38.9728 33.1079 41.1466 32.8906 43.5377 32.8906C45.7114 32.8906 47.8852 33.1079 50.0589 33.3253V18.9786C50.0589 15.5007 52.8848 12.6748 56.3627 12.6748C60.2755 12.6748 63.3187 16.3702 62.6666 20.2829L59.8407 35.9338C68.9704 39.4118 75.2743 45.4983 75.2743 52.4542C75.2743 63.1055 61.145 71.8005 43.7551 71.8005C26.3651 71.8005 12.2358 63.1055 12.2358 52.4542C12.2358 45.4983 18.3223 39.4118 27.452 35.9338L24.4088 20.2829ZM34.8432 50.9325C34.8432 53.7584 33.3216 56.1495 31.3652 56.1495C29.4089 56.1495 27.8872 53.7584 27.8872 50.9325C27.8872 48.1066 29.4089 45.7155 31.3652 45.7155C33.3216 45.7155 34.8432 48.1066 34.8432 50.9325ZM55.4936 56.1495C57.45 56.1495 58.9716 53.7584 58.9716 50.9325C58.9716 48.1066 57.45 45.7155 55.4936 45.7155C53.5373 45.7155 52.0157 48.1066 52.0157 50.9325C52.0157 53.7584 53.5373 56.1495 55.4936 56.1495Z" fill="white"/>
</svg>
