<svg width="88" height="88" viewBox="0 0 88 88" fill="none" xmlns="http://www.w3.org/2000/svg">
  <g clip-path="url(#clip0_3285:5839)">
    <path d="M36.2547 20.0246C35.3011 19.8884 35.2557 19.843 35.7098 19.7976C36.5725 19.6614 38.5705 19.843 39.9781 20.1609C43.2474 20.9328 46.1989 22.9307 49.3321 26.4271L50.1494 27.3807L51.33 27.199C56.3703 26.3817 61.5467 27.0174 65.8605 29.0154C67.0411 29.5602 68.9028 30.65 69.1298 30.9225C69.2206 31.0133 69.3568 31.6036 69.4477 32.1939C69.7655 34.3281 69.6293 35.9173 68.9482 37.1433C68.5849 37.8245 68.5849 38.0061 68.812 38.5964C68.9936 39.0505 69.5385 39.3683 70.038 39.3683C71.1277 39.3683 72.2629 37.6428 72.8078 35.2362L73.0349 34.2826L73.4435 34.7367C75.7593 37.325 77.5756 40.9122 77.8481 43.455L77.9389 44.1361L77.5302 43.5458C76.8491 42.5014 76.2134 41.8203 75.3507 41.23C73.8068 40.1857 72.1721 39.8678 67.8584 39.6408C63.9533 39.4137 61.7284 39.0959 59.5488 38.3693C55.8254 37.1433 53.9182 35.5541 49.5137 29.6965C47.5612 27.1082 46.3352 25.7006 45.1092 24.52C42.4301 21.9318 39.7511 20.5695 36.2547 20.0246Z" fill="white"/>
    <path d="M70.0834 25.7915C70.1742 24.066 70.4012 22.9308 70.9007 21.8864C71.0823 21.4778 71.264 21.1145 71.3094 21.1145C71.3548 21.1145 71.264 21.4324 71.1278 21.7956C70.7645 22.7946 70.7191 24.2022 70.9461 25.7915C71.264 27.8348 71.4002 28.1073 73.5798 30.3323C74.5787 31.3766 75.7593 32.6935 76.2134 33.2384L76.9854 34.2373L76.2134 33.5108C75.2599 32.6026 73.0803 30.8772 72.5808 30.6501C72.2629 30.4685 72.2175 30.4685 71.9905 30.6955C71.8089 30.8772 71.7635 31.1496 71.7635 32.4664C71.7181 34.5098 71.4456 35.7812 70.7645 37.098C70.4012 37.7791 70.3558 37.6429 70.6737 36.871C70.9007 36.2807 70.9461 36.0082 70.9461 34.0557C70.9461 30.1052 70.492 29.1517 67.7222 27.5624C67.0411 27.1537 65.8605 26.5634 65.1793 26.2456C64.4528 25.9277 63.9079 25.6553 63.9533 25.6553C64.0441 25.5645 66.7232 26.3364 67.7676 26.7905C69.3568 27.4262 69.6293 27.4716 69.8109 27.4262C69.9471 27.2899 70.038 26.9267 70.0834 25.7915Z" fill="white"/>
    <path d="M38.1163 32.5574C36.2091 29.9237 34.9831 25.8371 35.2556 22.7947L35.3464 21.8412L35.8005 21.932C36.6178 22.0682 38.0254 22.6131 38.7066 23.0218C40.5229 24.1116 41.3402 25.61 42.1121 29.3334C42.3392 30.4232 42.657 31.6946 42.7932 32.1033C43.0203 32.7844 43.883 34.3737 44.6096 35.3727C45.109 36.0992 44.7912 36.4624 43.656 36.3716C41.9305 36.19 39.6147 34.6007 38.1163 32.5574Z" fill="white"/>
    <path d="M67.7679 52.3097C58.7772 48.6771 55.5986 45.5439 55.5986 40.2312C55.5986 39.4593 55.644 38.8236 55.644 38.8236C55.6894 38.8236 56.0073 39.0961 56.416 39.4139C58.2323 40.867 60.2756 41.5027 65.9516 42.32C69.2663 42.8195 71.1734 43.1827 72.8989 43.773C78.3932 45.5893 81.7988 49.3128 82.6161 54.353C82.8432 55.806 82.707 58.5759 82.3437 60.029C82.0258 61.1641 81.1177 63.2529 80.8907 63.2983C80.8452 63.2983 80.7544 63.0713 80.7544 62.708C80.6636 60.8009 79.7101 58.9846 78.1208 57.5769C76.2137 55.9423 73.7617 54.7163 67.7679 52.3097Z" fill="white"/>
    <path d="M61.4108 53.808C61.32 53.1268 61.0929 52.2641 60.9567 51.9008L60.7297 51.2197L61.1384 51.7192C61.7287 52.4003 62.1827 53.2177 62.5914 54.3529C62.9093 55.2156 62.9092 55.488 62.9092 56.8957C62.9092 58.2579 62.8638 58.5758 62.5914 59.3477C62.1373 60.5737 61.5924 61.4365 60.6843 62.39C59.0496 64.0701 56.9155 64.9783 53.8731 65.3869C53.3283 65.4323 51.7844 65.5686 50.4222 65.6594C47.0166 65.841 44.7462 66.2043 42.7029 66.9308C42.4304 67.0216 42.158 67.1124 42.1126 67.067C42.0218 66.9762 43.4294 66.1589 44.5646 65.614C46.1539 64.842 47.7885 64.4334 51.3757 63.7977C53.1466 63.5252 54.9629 63.1619 55.417 62.9803C59.9123 61.5727 62.1373 58.0763 61.4108 53.808Z" fill="white"/>
    <path d="M65.5427 61.1186C64.3621 58.5304 64.0896 56.0783 64.7253 53.7625C64.8162 53.5355 64.907 53.3085 64.9978 53.3085C65.0886 53.3085 65.3611 53.4447 65.6335 53.6263C66.1784 53.9896 67.3136 54.6253 70.2197 56.2146C73.8977 58.2125 75.9864 59.7564 77.4395 61.5273C78.7109 63.0711 79.4828 64.842 79.8461 67.0216C80.0731 68.2476 79.9369 71.1991 79.6191 72.4251C78.6201 76.2848 76.3497 79.3725 73.0349 81.1434C72.5355 81.4159 72.1268 81.5975 72.0814 81.5975C72.036 81.5975 72.2176 81.1434 72.4901 80.5985C73.5798 78.2827 73.7161 76.0577 72.8987 73.5603C72.3992 72.0165 71.3549 70.1547 69.2661 67.0216C66.7687 63.389 66.1784 62.4354 65.5427 61.1186Z" fill="white"/>
    <path d="M31.7143 75.0134C35.0745 72.1981 39.2065 70.2001 43.0208 69.5644C44.6554 69.292 47.3799 69.3828 48.8783 69.7915C51.2849 70.4272 53.4645 71.7894 54.5997 73.4695C55.6895 75.1042 56.189 76.5118 56.6884 79.6449C56.8701 80.8709 57.0971 82.1424 57.1425 82.4148C57.5058 84.0495 58.2323 85.3209 59.1404 86.002C60.5481 87.0464 63.0001 87.0918 65.4067 86.1837C65.8154 86.0474 66.1786 85.9112 66.1786 85.9566C66.2694 86.0474 65.0434 86.8648 64.2261 87.2734C63.0909 87.8637 62.1828 88.0454 60.9568 88.0454C58.7772 88.0454 56.9155 86.9102 55.417 84.6398C55.0992 84.1857 54.4635 82.8689 53.9186 81.6429C52.3293 77.9649 51.512 76.8751 49.6503 75.6491C48.0156 74.6047 45.9269 74.3776 44.3376 75.1496C42.2488 76.1485 41.704 78.8276 43.157 80.4623C43.7473 81.1434 44.8371 81.6883 45.7452 81.8245C47.4253 82.0515 48.8783 80.7347 48.8783 79.0546C48.8783 77.9649 48.4697 77.3291 47.3799 76.8297C45.9269 76.194 44.3376 76.9205 44.383 78.3281C44.383 78.9184 44.6554 79.2817 45.2457 79.5541C45.609 79.7358 45.609 79.7358 45.3366 79.6903C44.0197 79.4179 43.7019 77.7832 44.7463 76.7388C46.0177 75.4674 48.6967 76.0123 49.6049 77.7832C49.9681 78.5097 50.0135 79.9628 49.6957 80.871C48.9238 82.8689 46.7442 83.9133 44.5192 83.323C43.0208 82.9143 42.3851 82.5056 40.5688 80.6439C37.3902 77.3746 36.1642 76.7388 31.6235 76.0577L30.7607 75.9215L31.7143 75.0134Z" fill="white"/>
    <path fill-rule="evenodd" clip-rule="evenodd" d="M7.83006 1.95253C18.41 14.8029 34.7114 34.7822 35.5287 35.872C36.2098 36.7802 35.9374 37.6429 34.8022 38.2786C34.1665 38.6419 32.8497 39.0052 32.214 39.0052C31.4874 39.0052 30.6247 38.6419 30.0344 38.0516C29.6257 37.6429 27.8548 35.0547 23.859 28.8338C20.8166 24.066 18.2284 20.1156 18.183 20.0702C18.0014 19.9794 18.0014 19.9794 23.5411 29.8782C27.0375 36.0991 28.1727 38.324 28.1727 38.5965C28.1727 39.1868 27.9911 39.5046 27.2645 40.322C26.0385 41.6842 25.4936 43.2281 25.085 46.452C24.6309 50.0392 23.4049 52.582 19.9085 56.8958C17.8651 59.4386 17.5473 59.8927 17.0478 60.937C16.4121 62.2085 16.2305 62.935 16.1397 64.5697C16.0488 66.2951 16.2305 67.3849 16.73 69.0196C17.184 70.4726 17.6835 71.4262 18.9095 73.2879C19.9539 74.9226 20.5896 76.1486 20.5896 76.6027C20.5896 76.9659 20.6804 76.9659 22.3151 76.6027C26.2202 75.6945 29.4441 74.1507 31.215 72.2436C32.3048 71.063 32.5772 70.4272 32.5772 68.7926C32.5772 67.7482 32.5318 67.5212 32.2594 66.8854C31.8053 65.8865 30.9426 65.0691 29.0808 63.7977C26.6288 62.1176 25.5844 60.7554 25.312 58.9391C25.085 57.3953 25.3574 56.3509 26.7196 53.4902C28.1273 50.5387 28.4905 49.3127 28.7176 46.3158C28.8538 44.4087 29.0808 43.6367 29.6257 43.0464C30.216 42.4107 30.7155 42.1837 32.1232 42.0021C34.4389 41.6842 35.9374 41.0939 37.118 39.9587C38.1624 39.0052 38.6164 38.0516 38.6619 36.644L38.7073 35.5996L38.117 34.9639C35.9828 32.5119 6.42242 0 6.2862 0C6.24079 0 6.96731 0.862745 7.83006 1.95253ZM21.7702 66.5222C22.2697 65.6594 21.9972 64.5697 21.1799 64.0248C20.408 63.5253 19.2274 63.7523 19.2274 64.4334C19.2274 64.6151 19.3182 64.7967 19.5906 64.8875C19.9993 65.1145 20.0447 65.3416 19.7269 65.8411C19.409 66.3406 19.409 66.7946 19.8177 67.1125C20.4534 67.612 21.3161 67.3395 21.7702 66.5222Z" fill="white"/>
    <path fill-rule="evenodd" clip-rule="evenodd" d="M40.1598 42.638C39.07 42.9558 38.0257 44.1364 37.7078 45.317C37.5262 46.0435 37.617 47.3603 37.9348 47.769C38.4343 48.4047 38.8884 48.5863 40.1598 48.5863C42.6573 48.5863 44.7914 47.4966 45.0185 46.1797C45.2455 45.09 44.2919 43.5915 42.9751 42.9104C42.294 42.5472 40.8864 42.4109 40.1598 42.638ZM43.0659 44.9083C43.4292 44.3635 43.293 43.7732 42.6119 43.3645C41.3858 42.5926 39.5241 43.2283 39.5241 44.4089C39.5241 44.9992 40.4777 45.6349 41.3858 45.6349C41.9761 45.6349 42.7935 45.2716 43.0659 44.9083Z" fill="white"/>
  </g>
  <defs>
    <clipPath id="clip0_3285:5839">
      <rect width="88" height="88" fill="white"/>
    </clipPath>
  </defs>
</svg>
